<svg width="2462" height="1336" xmlns="http://www.w3.org/2000/svg" xmlns:xlink="http://www.w3.org/1999/xlink" xml:space="preserve" overflow="hidden"><defs><clipPath id="clip0"><rect x="185" y="368" width="2462" height="1336"/></clipPath></defs><g clip-path="url(#clip0)" transform="translate(-185 -368)"><path d="M0 0 0.000360892 1304.04" stroke="#7F7F7F" stroke-width="2.29167" stroke-miterlimit="8" stroke-dasharray="9.16667 6.875 2.29167 6.875" fill="none" fill-rule="evenodd" transform="matrix(-1 0 0 1 364 396)"/><path d="M0 0 0.000360892 1304.04" stroke="#7F7F7F" stroke-width="2.29167" stroke-miterlimit="8" stroke-dasharray="9.16667 6.875 2.29167 6.875" fill="none" fill-rule="evenodd" transform="matrix(-1 0 0 1 1479 398)"/><path d="M0 0 2348.99 0.000360892" stroke="#939393" stroke-width="2.29167" stroke-miterlimit="8" fill="none" fill-rule="evenodd" transform="matrix(1 0 0 -1 297 526)"/><path d="M0 0 2348.99 0.000360892" stroke="#939393" stroke-width="2.29167" stroke-miterlimit="8" fill="none" fill-rule="evenodd" transform="matrix(1 0 0 -1 297 786)"/><path d="M0 0 2348.99 0.000360892" stroke="#939393" stroke-width="2.29167" stroke-miterlimit="8" fill="none" fill-rule="evenodd" transform="matrix(1 0 0 -1 297 1046)"/><path d="M0 0 2348.99 0.000360892" stroke="#939393" stroke-width="2.29167" stroke-miterlimit="8" fill="none" fill-rule="evenodd" transform="matrix(1 0 0 -1 297 1305)"/><text fill="#7F7F7F" font-family="Segoe UI,Segoe UI_MSFontService,sans-serif" font-weight="400" font-size="37" transform="matrix(1 0 0 1 295.934 420)">RF </text><text fill="#7F7F7F" font-family="Segoe UI,Segoe UI_MSFontService,sans-serif" font-weight="400" font-size="37" transform="matrix(1 0 0 1 219.163 464)">Trigger </text><text fill="#7F7F7F" font-family="Segoe UI,Segoe UI_MSFontService,sans-serif" font-weight="400" font-size="37" transform="matrix(1 0 0 1 263.278 508)">ADC</text><text fill="#7F7F7F" font-family="Segoe UI,Segoe UI_MSFontService,sans-serif" font-weight="400" font-size="37" transform="matrix(1 0 0 1 288.486 768)">GX</text><text fill="#7F7F7F" font-family="Segoe UI,Segoe UI_MSFontService,sans-serif" font-weight="400" font-size="37" transform="matrix(1 0 0 1 290.205 1028)">GY</text><text fill="#7F7F7F" font-family="Segoe UI,Segoe UI_MSFontService,sans-serif" font-weight="400" font-size="37" transform="matrix(1 0 0 1 289.059 1289)">GZ</text><path d="M1028 1046 1028 1046 1030.01 1079 1030.01 1079 1032 1046" fill="#5AB9DC" fill-rule="evenodd"/><path d="M1032 1046 1032 1046 1034 1012 1034 1012 1036 1046" fill="#5AB9DC" fill-rule="evenodd"/><path d="M1036 1046 1036 1046 1039 1090 1039 1090 1042 1046" fill="#5AB9DC" fill-rule="evenodd"/><path d="M1042 1046 1042 1046 1044.51 1001 1044.51 1001 1047 1046" fill="#5AB9DC" fill-rule="evenodd"/><path d="M1047 1046 1047 1046 1050.5 1101 1050.5 1101 1054 1046" fill="#5AB9DC" fill-rule="evenodd"/><path d="M1054 1046 1054 1046 1057.01 990 1057.01 990 1060 1046" fill="#5AB9DC" fill-rule="evenodd"/><path d="M1060 1046 1060 1046 1064.5 1113 1064.5 1113 1069 1046" fill="#5AB9DC" fill-rule="evenodd"/><path d="M1069 1046 1069 1046 1073.01 979 1073.01 979 1077 1046" fill="#5AB9DC" fill-rule="evenodd"/><path d="M1077 1046 1077 1046 1081.5 1124 1081.5 1124 1086 1046" fill="#5AB9DC" fill-rule="evenodd"/><path d="M1086 1046 1086 1046 1090.49 967 1090.49 967 1095 1046" fill="#5AB9DC" fill-rule="evenodd"/><path d="M1095 1046 1095 1046 1100.51 1135 1100.51 1135 1106 1046" fill="#5AB9DC" fill-rule="evenodd"/><path d="M1106 1046 1106 1046 1111.5 956 1111.5 956 1117 1046" fill="#5AB9DC" fill-rule="evenodd"/><path d="M1117 1046 1117 1046 1122.99 1146 1122.99 1146 1129 1046" fill="#5AB9DC" fill-rule="evenodd"/><path d="M1129 1046 1129 1046 1134.99 945 1134.99 945 1141 1046" fill="#5AB9DC" fill-rule="evenodd"/><path d="M1141 1046 1141 1046 1147.51 1157 1147.51 1157 1154 1046" fill="#5AB9DC" fill-rule="evenodd"/><path d="M1154 1046 1154 1046 1161.01 934 1161.01 934 1168 1046" fill="#5AB9DC" fill-rule="evenodd"/><path d="M1168 1046 1168 1046 1175.01 1168 1175.01 1168 1182 1046" fill="#5AB9DC" fill-rule="evenodd"/><path d="M1182 1046 1182 1046 1189.51 923 1189.51 923 1197 1046" fill="#5AB9DC" fill-rule="evenodd"/><path d="M1197 1046 1197 1046 1205.01 1180 1205.01 1180 1213 1046" fill="#5AB9DC" fill-rule="evenodd"/><path d="M1213 1046 1213 1046 1221.01 912 1221.01 912 1229 1046" fill="#5AB9DC" fill-rule="evenodd"/><path d="M1229 1046 1229 1046 1237.99 1191 1237.99 1191 1247 1046" fill="#5AB9DC" fill-rule="evenodd"/><path d="M1247 1046 1247 1046 1255.49 900 1255.49 900 1264 1046" fill="#5AB9DC" fill-rule="evenodd"/><path d="M1264 1046 1264 1046 1273.5 1202 1273.5 1202 1283 1046" fill="#5AB9DC" fill-rule="evenodd"/><path d="M1283 1046 1283 1046 1292.51 889 1292.51 889 1302 1046" fill="#5AB9DC" fill-rule="evenodd"/><path d="M1302 1046 1302 1046 1311.99 1213 1311.99 1213 1322 1046" fill="#5AB9DC" fill-rule="evenodd"/><path d="M1322 1046 1322 1046 1332 878 1332 878 1342 1046" fill="#5AB9DC" fill-rule="evenodd"/><path d="M1342 1046 1342 1046 1352.51 1224 1352.51 1224 1363 1046" fill="#5AB9DC" fill-rule="evenodd"/><path d="M1363 1046 1363 1046 1374 867 1374 867 1385 1046" fill="#5AB9DC" fill-rule="evenodd"/><path d="M1385 1046 1385 1046 1396.01 1235 1396.01 1235 1407 1046" fill="#5AB9DC" fill-rule="evenodd"/><path d="M1407 1046 1407 1046 1418.5 856 1418.5 856 1430 1046" fill="#5AB9DC" fill-rule="evenodd"/><path d="M1430 1046 1430 1046 1442.01 1247 1442.01 1247 1454 1046" fill="#5AB9DC" fill-rule="evenodd"/><path d="M1454 1046 1454 1046 1466 845 1466 845 1478 1046" fill="#5AB9DC" fill-rule="evenodd"/><path d="M0 0 0.000360892 1304.04" stroke="#7F7F7F" stroke-width="2.29167" stroke-miterlimit="8" stroke-dasharray="9.16667 6.875 2.29167 6.875" fill="none" fill-rule="evenodd" transform="matrix(-1 0 0 1 1936 398)"/><path d="M1485 1306 1485 1306 1487.01 1339 1487.01 1339 1489 1306" fill="#5AB9DC" fill-rule="evenodd"/><path d="M1489 1306 1489 1306 1491 1272 1491 1272 1493 1306" fill="#5AB9DC" fill-rule="evenodd"/><path d="M1493 1306 1493 1306 1496 1350 1496 1350 1499 1306" fill="#5AB9DC" fill-rule="evenodd"/><path d="M1499 1306 1499 1306 1501.51 1261 1501.51 1261 1504 1306" fill="#5AB9DC" fill-rule="evenodd"/><path d="M1504 1306 1504 1306 1507.5 1362 1507.5 1362 1511 1306" fill="#5AB9DC" fill-rule="evenodd"/><path d="M1511 1306 1511 1306 1514.01 1250 1514.01 1250 1517 1306" fill="#5AB9DC" fill-rule="evenodd"/><path d="M1517 1306 1517 1306 1521 1373 1521 1373 1525 1306" fill="#5AB9DC" fill-rule="evenodd"/><path d="M1525 1306 1525 1306 1529.01 1239 1529.01 1239 1533 1306" fill="#5AB9DC" fill-rule="evenodd"/><path d="M1533 1306 1533 1306 1538 1384 1538 1384 1543 1306" fill="#5AB9DC" fill-rule="evenodd"/><path d="M1543 1306 1543 1306 1547.49 1228 1547.49 1228 1552 1306" fill="#5AB9DC" fill-rule="evenodd"/><path d="M1552 1306 1552 1306 1557.51 1395 1557.51 1395 1563 1306" fill="#5AB9DC" fill-rule="evenodd"/><path d="M1563 1306 1563 1306 1568.5 1216 1568.5 1216 1574 1306" fill="#5AB9DC" fill-rule="evenodd"/><path d="M1574 1306 1574 1306 1579.99 1406 1579.99 1406 1586 1306" fill="#5AB9DC" fill-rule="evenodd"/><path d="M1586 1306 1586 1306 1591.99 1205 1591.99 1205 1598 1306" fill="#5AB9DC" fill-rule="evenodd"/><path d="M1598 1306 1598 1306 1604.51 1417 1604.51 1417 1611 1306" fill="#5AB9DC" fill-rule="evenodd"/><path d="M1611 1306 1611 1306 1617.51 1194 1617.51 1194 1624 1306" fill="#5AB9DC" fill-rule="evenodd"/><path d="M1624 1306 1624 1306 1631.51 1428 1631.51 1428 1639 1306" fill="#5AB9DC" fill-rule="evenodd"/><path d="M1639 1306 1639 1306 1646.51 1183 1646.51 1183 1654 1306" fill="#5AB9DC" fill-rule="evenodd"/><path d="M1654 1306 1654 1306 1662.01 1440 1662.01 1440 1670 1306" fill="#5AB9DC" fill-rule="evenodd"/><path d="M1670 1306 1670 1306 1678.01 1172 1678.01 1172 1686 1306" fill="#5AB9DC" fill-rule="evenodd"/><path d="M1686 1306 1686 1306 1694.99 1451 1694.99 1451 1704 1306" fill="#5AB9DC" fill-rule="evenodd"/><path d="M1704 1306 1704 1306 1712.49 1161 1712.49 1161 1721 1306" fill="#5AB9DC" fill-rule="evenodd"/><path d="M1721 1306 1721 1306 1730.5 1462 1730.5 1462 1740 1306" fill="#5AB9DC" fill-rule="evenodd"/><path d="M1740 1306 1740 1306 1749.01 1149 1749.01 1149 1758 1306" fill="#5AB9DC" fill-rule="evenodd"/><path d="M1758 1306 1758 1306 1767.99 1473 1767.99 1473 1778 1306" fill="#5AB9DC" fill-rule="evenodd"/><path d="M1778 1306 1778 1306 1788.5 1138 1788.5 1138 1799 1306" fill="#5AB9DC" fill-rule="evenodd"/><path d="M1799 1306 1799 1306 1809.51 1484 1809.51 1484 1820 1306" fill="#5AB9DC" fill-rule="evenodd"/><path d="M1820 1306 1820 1306 1830.5 1127 1830.5 1127 1841 1306" fill="#5AB9DC" fill-rule="evenodd"/><path d="M1841 1306 1841 1306 1852.51 1495 1852.51 1495 1864 1306" fill="#5AB9DC" fill-rule="evenodd"/><path d="M1864 1306 1864 1306 1875.5 1116 1875.5 1116 1887 1306" fill="#5AB9DC" fill-rule="evenodd"/><path d="M1887 1306 1887 1306 1899.01 1507 1899.01 1507 1911 1306" fill="#5AB9DC" fill-rule="evenodd"/><path d="M1911 1306 1911 1306 1923 1105 1923 1105 1935 1306" fill="#5AB9DC" fill-rule="evenodd"/><path d="M0 0 0.000360892 1304.04" stroke="#7F7F7F" stroke-width="2.29167" stroke-miterlimit="8" stroke-dasharray="9.16667 6.875 2.29167 6.875" fill="none" fill-rule="evenodd" transform="matrix(-1 0 0 1 1024 398)"/><rect x="473" y="396" width="102" height="1194" fill="#F2F2F2" fill-opacity="0.501961"/><rect x="473" y="439" width="16.0002" height="87" fill="#7F7F7F"/><text fill="#7F7F7F" font-family="Arial,Arial_MSFontService,sans-serif" font-weight="400" font-size="37" transform="matrix(-1.83697e-16 -1 1 -1.83697e-16 537.076 1098)">Gradient</text><text fill="#7F7F7F" font-family="Arial,Arial_MSFontService,sans-serif" font-weight="400" font-size="37" transform="matrix(-1.83697e-16 -1 1 -1.83697e-16 537.076 957)">-</text><text fill="#7F7F7F" font-family="Arial,Arial_MSFontService,sans-serif" font-weight="400" font-size="37" transform="matrix(-1.83697e-16 -1 1 -1.83697e-16 537.076 945)">free interval</text><text fill="#7F7F7F" font-family="Arial,Arial_MSFontService,sans-serif" font-weight="400" font-size="37" transform="matrix(1 0 0 1 501.733 490)">Trigger</text><path d="M574 787 574 787 576.009 820 576.009 820 578 787" fill="#5AB9DC" fill-rule="evenodd"/><path d="M578 787 578 787 580 753 580 753 582 787" fill="#5AB9DC" fill-rule="evenodd"/><path d="M582 787 582 787 584.5 831 584.5 831 587 787" fill="#5AB9DC" fill-rule="evenodd"/><path d="M587 787 587 787 590.01 742 590.01 742 593 787" fill="#5AB9DC" fill-rule="evenodd"/><path d="M593 787 593 787 596 842 596 842 599 787" fill="#5AB9DC" fill-rule="evenodd"/><path d="M599 787 599 787 602.509 731 602.509 731 606 787" fill="#5AB9DC" fill-rule="evenodd"/><path d="M606 787 606 787 610 854 610 854 614 787" fill="#5AB9DC" fill-rule="evenodd"/><path d="M614 787 614 787 618.008 720 618.008 720 622 787" fill="#5AB9DC" fill-rule="evenodd"/><path d="M622 787 622 787 627 865 627 865 632 787" fill="#5AB9DC" fill-rule="evenodd"/><path d="M632 787 632 787 636.492 708 636.492 708 641 787" fill="#5AB9DC" fill-rule="evenodd"/><path d="M641 787 641 787 646.509 876 646.509 876 652 787" fill="#5AB9DC" fill-rule="evenodd"/><path d="M652 787 652 787 657 697 657 697 662 787" fill="#5AB9DC" fill-rule="evenodd"/><path d="M662 787 662 787 667.992 887 667.992 887 674 787" fill="#5AB9DC" fill-rule="evenodd"/><path d="M674 787 674 787 679.992 686 679.992 686 686 787" fill="#5AB9DC" fill-rule="evenodd"/><path d="M686 787 686 787 693.009 898 693.009 898 700 787" fill="#5AB9DC" fill-rule="evenodd"/><path d="M700 787 700 787 706.508 675 706.508 675 713 787" fill="#5AB9DC" fill-rule="evenodd"/><path d="M713 787 713 787 720.509 909 720.509 909 728 787" fill="#5AB9DC" fill-rule="evenodd"/><path d="M728 787 728 787 735.509 664 735.509 664 743 787" fill="#5AB9DC" fill-rule="evenodd"/><path d="M743 787 743 787 751.008 921 751.008 921 759 787" fill="#5AB9DC" fill-rule="evenodd"/><path d="M759 787 759 787 767.009 653 767.009 653 775 787" fill="#5AB9DC" fill-rule="evenodd"/><path d="M775 787 775 787 783.492 932 783.492 932 792 787" fill="#5AB9DC" fill-rule="evenodd"/><path d="M792 787 792 787 800.991 642 800.991 642 810 787" fill="#5AB9DC" fill-rule="evenodd"/><path d="M810 787 810 787 819 943 819 943 828 787" fill="#5AB9DC" fill-rule="evenodd"/><path d="M828 787 828 787 837.509 630 837.509 630 847 787" fill="#5AB9DC" fill-rule="evenodd"/><path d="M847 787 847 787 856.992 954 856.992 954 867 787" fill="#5AB9DC" fill-rule="evenodd"/><path d="M867 787 867 787 877 619 877 619 887 787" fill="#5AB9DC" fill-rule="evenodd"/><path d="M887 787 887 787 898.009 965 898.009 965 909 787" fill="#5AB9DC" fill-rule="evenodd"/><path d="M909 787 909 787 919.5 608 919.5 608 930 787" fill="#5AB9DC" fill-rule="evenodd"/><path d="M930 787 930 787 941.508 976 941.508 976 953 787" fill="#5AB9DC" fill-rule="evenodd"/><path d="M953 787 953 787 964.5 597 964.5 597 976 787" fill="#5AB9DC" fill-rule="evenodd"/><path d="M976 787 976 787 988.009 988 988.009 988 1000 787" fill="#5AB9DC" fill-rule="evenodd"/><path d="M1000 787 1000 787 1012 586 1012 586 1024 787" fill="#5AB9DC" fill-rule="evenodd"/><rect x="364" y="1587" width="2281" height="51.9999" fill="#C00000"/><text fill="#FFFFFF" font-family="Segoe UI,Segoe UI_MSFontService,sans-serif" font-weight="400" font-size="32" transform="matrix(1 0 0 1 1388.34 1625)">Sequence </text><text fill="#FFFFFF" font-family="Segoe UI,Segoe UI_MSFontService,sans-serif" font-weight="400" font-size="32" transform="matrix(1 0 0 1 1534.43 1625)">kernel</text><path d="M574 1514 1961 1514 1987 1540 1961 1566 574 1566Z" fill="#004F9E" fill-rule="evenodd"/><text fill="#FFFFFF" font-family="Segoe UI,Segoe UI_MSFontService,sans-serif" font-weight="400" font-size="32" transform="matrix(1 0 0 1 1131.39 1551)">CameraAcqDuration</text></g></svg>