<svg width="2462" height="1403" xmlns="http://www.w3.org/2000/svg" xmlns:xlink="http://www.w3.org/1999/xlink" xml:space="preserve" overflow="hidden"><defs><clipPath id="clip0"><rect x="185" y="368" width="2462" height="1403"/></clipPath></defs><g clip-path="url(#clip0)" transform="translate(-185 -368)"><path d="M0 0 0.000360892 1304.04" stroke="#7F7F7F" stroke-width="2.29167" stroke-miterlimit="8" stroke-dasharray="9.16667 6.875 2.29167 6.875" fill="none" fill-rule="evenodd" transform="matrix(-1 0 0 1 360 396)"/><path d="M0 0 0.000360892 1304.04" stroke="#7F7F7F" stroke-width="2.29167" stroke-miterlimit="8" stroke-dasharray="9.16667 6.875 2.29167 6.875" fill="none" fill-rule="evenodd" transform="matrix(-1 0 0 1 1075 396)"/><path d="M0 0 0.000360892 1304.04" stroke="#7F7F7F" stroke-width="2.29167" stroke-miterlimit="8" stroke-dasharray="9.16667 6.875 2.29167 6.875" fill="none" fill-rule="evenodd" transform="matrix(-1 0 0 1 1889 398)"/><path d="M0 0 0.000360892 1304.04" stroke="#7F7F7F" stroke-width="2.29167" stroke-miterlimit="8" stroke-dasharray="9.16667 6.875 2.29167 6.875" fill="none" fill-rule="evenodd" transform="matrix(-1 0 0 1 1532 396)"/><path d="M0 0 0.000360892 1304.04" stroke="#7F7F7F" stroke-width="2.29167" stroke-miterlimit="8" stroke-dasharray="9.16667 6.875 2.29167 6.875" fill="none" fill-rule="evenodd" transform="matrix(-1 0 0 1 1250 396)"/><path d="M0 0 0.000360892 1304.04" stroke="#7F7F7F" stroke-width="2.29167" stroke-miterlimit="8" stroke-dasharray="9.16667 6.875 2.29167 6.875" fill="none" fill-rule="evenodd" transform="matrix(-1 0 0 1 2604 396)"/><path d="M0 0 0.000360892 1304.04" stroke="#7F7F7F" stroke-width="2.29167" stroke-miterlimit="8" stroke-dasharray="9.16667 6.875 2.29167 6.875" fill="none" fill-rule="evenodd" transform="matrix(-1 0 0 1 1370 396)"/><path d="M0 0 0.000360892 1304.04" stroke="#7F7F7F" stroke-width="2.29167" stroke-miterlimit="8" stroke-dasharray="9.16667 6.875 2.29167 6.875" fill="none" fill-rule="evenodd" transform="matrix(-1 0 0 1 1725 396)"/><path d="M0 0 0.000360892 1304.04" stroke="#7F7F7F" stroke-width="2.29167" stroke-miterlimit="8" stroke-dasharray="9.16667 6.875 2.29167 6.875" fill="none" fill-rule="evenodd" transform="matrix(-1 0 0 1 493 396)"/><path d="M0 0 0.000360892 1304.04" stroke="#7F7F7F" stroke-width="2.29167" stroke-miterlimit="8" stroke-dasharray="9.16667 6.875 2.29167 6.875" fill="none" fill-rule="evenodd" transform="matrix(-1 0 0 1 2212 396)"/><path d="M0 0 0.000360892 1304.04" stroke="#7F7F7F" stroke-width="2.29167" stroke-miterlimit="8" stroke-dasharray="9.16667 6.875 2.29167 6.875" fill="none" fill-rule="evenodd" transform="matrix(-1 0 0 1 2049 396)"/><path d="M0 0 2348.99 0.000360892" stroke="#939393" stroke-width="2.29167" stroke-miterlimit="8" fill="none" fill-rule="evenodd" transform="matrix(1 0 0 -1 297 526)"/><path d="M0 0 2348.99 0.000360892" stroke="#939393" stroke-width="2.29167" stroke-miterlimit="8" fill="none" fill-rule="evenodd" transform="matrix(1 0 0 -1 297 786)"/><path d="M0 0 2348.99 0.000360892" stroke="#939393" stroke-width="2.29167" stroke-miterlimit="8" fill="none" fill-rule="evenodd" transform="matrix(1 0 0 -1 297 1046)"/><path d="M0 0 2348.99 0.000360892" stroke="#939393" stroke-width="2.29167" stroke-miterlimit="8" fill="none" fill-rule="evenodd" transform="matrix(1 0 0 -1 297 1305)"/><rect x="751" y="396" width="102" height="1194" fill="#F2F2F2" fill-opacity="0.501961"/><path d="M361 1305 403.808 1227 578.192 1227 621 1305Z" stroke="#4087A1" stroke-width="2.29167" stroke-miterlimit="8" fill="#5AB9DC" fill-rule="evenodd"/><path d="M751 1305 708.191 1383 663.809 1383 621 1305Z" stroke="#4087A1" stroke-width="2.29167" stroke-miterlimit="8" fill="#5AB9DC" fill-rule="evenodd"/><rect x="751" y="439" width="16.9998" height="87" fill="#7F7F7F"/><path d="M1206 786 1248.81 708 1488.19 708 1531 786Z" stroke="#4087A1" stroke-width="2.29167" stroke-miterlimit="8" fill="#5AB9DC" fill-rule="evenodd"/><path d="M1206 786 1163.19 864 1118.81 864 1076 786Z" stroke="#4087A1" stroke-width="2.29167" stroke-miterlimit="8" fill="#5AB9DC" fill-rule="evenodd"/><path d="M1076 1046 1118.81 968 1163.19 968 1206 1046Z" stroke="#4087A1" stroke-width="2.29167" stroke-miterlimit="8" fill="#5AB9DC" fill-rule="evenodd"/><path d="M1076 1046 1110.03 984 1171.97 984 1206 1046Z" stroke="#4087A1" stroke-width="2.29167" stroke-miterlimit="8" fill="#5AB9DC" fill-rule="evenodd"/><path d="M1076 1046 1099.6 1003 1182.4 1003 1206 1046Z" stroke="#4087A1" stroke-width="2.29167" stroke-miterlimit="8" fill="#5AB9DC" fill-rule="evenodd"/><path d="M1076 1046 1088.07 1024 1193.93 1024 1206 1046Z" stroke="#4087A1" stroke-width="2.29167" stroke-miterlimit="8" fill="#5AB9DC" fill-rule="evenodd"/><path d="M1206 1046 1163.19 1124 1118.81 1124 1076 1046Z" stroke="#4087A1" stroke-width="2.29167" stroke-miterlimit="8" fill="#5AB9DC" fill-rule="evenodd"/><path d="M1206 1046 1171.97 1108 1110.03 1108 1076 1046Z" stroke="#4087A1" stroke-width="2.29167" stroke-miterlimit="8" fill="#5AB9DC" fill-rule="evenodd"/><path d="M1206 1046 1182.95 1088 1099.05 1088 1076 1046Z" stroke="#4087A1" stroke-width="2.29167" stroke-miterlimit="8" fill="#5AB9DC" fill-rule="evenodd"/><path d="M1206 1046 1194.47 1067 1087.53 1067 1076 1046Z" stroke="#4087A1" stroke-width="2.29167" stroke-miterlimit="8" fill="#5AB9DC" fill-rule="evenodd"/><path d="M1723 786 1693.01 916 1560.99 916 1531 786Z" stroke="#4087A1" stroke-width="2.29167" stroke-miterlimit="8" fill="#5AB9DC" fill-rule="evenodd"/><path d="M1888 786 1930.81 708 2170.19 708 2213 786Z" stroke="#4087A1" stroke-width="2.29167" stroke-miterlimit="8" fill="#5AB9DC" fill-rule="evenodd"/><path d="M2447 786 2389.92 890 2270.08 890 2213 786Z" stroke="#4087A1" stroke-width="2.29167" stroke-miterlimit="8" fill="#5AB9DC" fill-rule="evenodd"/><path d="M2213 1045 2255.81 967 2300.19 967 2343 1045Z" stroke="#4087A1" stroke-width="2.29167" stroke-miterlimit="8" fill="#5AB9DC" fill-rule="evenodd"/><path d="M2213 1045 2247.03 983 2308.97 983 2343 1045Z" stroke="#4087A1" stroke-width="2.29167" stroke-miterlimit="8" fill="#5AB9DC" fill-rule="evenodd"/><path d="M2213 1045 2236.05 1003 2319.95 1003 2343 1045Z" stroke="#4087A1" stroke-width="2.29167" stroke-miterlimit="8" fill="#5AB9DC" fill-rule="evenodd"/><path d="M2213 1045 2224.53 1024 2331.47 1024 2343 1045Z" stroke="#4087A1" stroke-width="2.29167" stroke-miterlimit="8" fill="#5AB9DC" fill-rule="evenodd"/><path d="M2343 1045 2300.19 1123 2255.81 1123 2213 1045Z" stroke="#4087A1" stroke-width="2.29167" stroke-miterlimit="8" fill="#5AB9DC" fill-rule="evenodd"/><path d="M2343 1045 2308.97 1107 2247.03 1107 2213 1045Z" stroke="#4087A1" stroke-width="2.29167" stroke-miterlimit="8" fill="#5AB9DC" fill-rule="evenodd"/><path d="M2343 1045 2319.4 1088 2236.6 1088 2213 1045Z" stroke="#4087A1" stroke-width="2.29167" stroke-miterlimit="8" fill="#5AB9DC" fill-rule="evenodd"/><path d="M2343 1045 2330.93 1067 2225.07 1067 2213 1045Z" stroke="#4087A1" stroke-width="2.29167" stroke-miterlimit="8" fill="#5AB9DC" fill-rule="evenodd"/><path d="M2447 1306 2389.92 1410 2270.08 1410 2213 1306Z" stroke="#4087A1" stroke-width="2.29167" stroke-miterlimit="8" fill="#5AB9DC" fill-rule="evenodd"/><path d="M751 630 1045 630 1071 656 1045 682 751 682Z" fill="#005EBB" fill-rule="evenodd"/><text fill="#FFFFFF" font-family="Calibri,Calibri_MSFontService,sans-serif" font-weight="400" font-size="32" transform="matrix(1 0 0 1 863.541 667)">fill</text><text fill="#FFFFFF" font-family="Segoe UI,Segoe UI_MSFontService,sans-serif" font-weight="400" font-size="32" transform="matrix(1 0 0 1 895.625 667)">TE1</text><path d="M1723 630 1859 630 1885 656 1859 682 1723 682Z" fill="#005EBB" fill-rule="evenodd"/><text fill="#FFFFFF" font-family="Calibri,Calibri_MSFontService,sans-serif" font-weight="400" font-size="32" transform="matrix(1 0 0 1 1756.54 667)">fill</text><text fill="#FFFFFF" font-family="Segoe UI,Segoe UI_MSFontService,sans-serif" font-weight="400" font-size="32" transform="matrix(1 0 0 1 1788.62 667)">TE2</text><path d="M491 1435 1337 1435 1363 1461 1337 1487 491 1487Z" fill="#002060" fill-rule="evenodd"/><text fill="#FFFFFF" font-family="Segoe UI,Segoe UI_MSFontService,sans-serif" font-weight="400" font-size="32" transform="matrix(1 0 0 1 891.63 1473)">TE 1</text><path d="M491 1510 2023 1510 2049 1536 2023 1562 491 1562Z" fill="#002060" fill-rule="evenodd"/><text fill="#FFFFFF" font-family="Segoe UI,Segoe UI_MSFontService,sans-serif" font-weight="400" font-size="32" transform="matrix(1 0 0 1 1234.6 1548)">TE 2</text><text fill="#7F7F7F" font-family="Segoe UI,Segoe UI_MSFontService,sans-serif" font-weight="400" font-size="37" transform="matrix(1 0 0 1 295.934 420)">RF </text><text fill="#7F7F7F" font-family="Segoe UI,Segoe UI_MSFontService,sans-serif" font-weight="400" font-size="37" transform="matrix(1 0 0 1 219.163 464)">Trigger </text><text fill="#7F7F7F" font-family="Segoe UI,Segoe UI_MSFontService,sans-serif" font-weight="400" font-size="37" transform="matrix(1 0 0 1 263.278 508)">ADC</text><text fill="#7F7F7F" font-family="Segoe UI,Segoe UI_MSFontService,sans-serif" font-weight="400" font-size="37" transform="matrix(1 0 0 1 288.486 768)">GX</text><text fill="#7F7F7F" font-family="Segoe UI,Segoe UI_MSFontService,sans-serif" font-weight="400" font-size="37" transform="matrix(1 0 0 1 290.205 1028)">GY</text><text fill="#7F7F7F" font-family="Segoe UI,Segoe UI_MSFontService,sans-serif" font-weight="400" font-size="37" transform="matrix(1 0 0 1 289.059 1289)">GZ</text><rect x="1247" y="439" width="243" height="87" fill="#7F7F7F"/><text fill="#FFFFFF" font-family="Segoe UI,Segoe UI_MSFontService,sans-serif" font-weight="400" font-size="46" transform="matrix(1 0 0 1 1304.54 500)">ADC 1</text><path d="M751 560 1221 560 1247 586 1221 612 751 612Z" fill="#2894FF" fill-rule="evenodd"/><text fill="#FFFFFF" font-family="Segoe UI,Segoe UI_MSFontService,sans-serif" font-weight="400" font-size="32" transform="matrix(1 0 0 1 801.603 597)">TriggerToScannerAcqDelay</text><rect x="1929" y="438" width="244" height="86.9999" fill="#7F7F7F"/><text fill="#FFFFFF" font-family="Segoe UI,Segoe UI_MSFontService,sans-serif" font-weight="400" font-size="46" transform="matrix(1 0 0 1 1986.89 499)">ADC 2</text><text fill="#7F7F7F" font-family="Segoe UI,Segoe UI_MSFontService,sans-serif" font-weight="400" font-size="37" transform="matrix(-1.83697e-16 -1 1 -1.83697e-16 815.401 1099)">Gradient</text><text fill="#7F7F7F" font-family="Segoe UI,Segoe UI_MSFontService,sans-serif" font-weight="400" font-size="37" transform="matrix(-1.83697e-16 -1 1 -1.83697e-16 815.401 959)">-</text><text fill="#7F7F7F" font-family="Segoe UI,Segoe UI_MSFontService,sans-serif" font-weight="400" font-size="37" transform="matrix(-1.83697e-16 -1 1 -1.83697e-16 815.401 944)">free interval</text><path d="M462 527.5C462 488.012 476.551 456 494.5 456 512.449 456 527 488.012 527 527.5 527 566.989 512.449 599 494.5 599 476.551 599 462 566.989 462 527.5Z" fill="#7F7F7F" fill-rule="evenodd"/><path d="M527 527C527 503.252 538.641 484 553 484 567.359 484 579 503.252 579 527 579 550.748 567.359 570 553 570 538.641 570 527 550.748 527 527Z" fill="#7F7F7F" fill-rule="evenodd"/><path d="M410 527C410 503.252 421.641 484 436 484 450.359 484 462 503.252 462 527 462 550.748 450.359 570 436 570 421.641 570 410 550.748 410 527Z" fill="#7F7F7F" fill-rule="evenodd"/><path d="M751 1175 2187 1175 2213 1201 2187 1227 751 1227Z" fill="#004F9E" fill-rule="evenodd"/><text fill="#FFFFFF" font-family="Segoe UI,Segoe UI_MSFontService,sans-serif" font-weight="400" font-size="32" transform="matrix(1 0 0 1 1333.05 1212)">CameraAcqDuration</text><path d="M360 1590 2576 1590 2602 1616 2576 1642 360 1642Z" fill="#002060" fill-rule="evenodd"/><text fill="#FFFFFF" font-family="Segoe UI,Segoe UI_MSFontService,sans-serif" font-weight="400" font-size="32" transform="matrix(1 0 0 1 1456.4 1628)">TR</text><path d="M2451 631 2574 631 2600 657 2574 683 2451 683Z" fill="#005EBB" fill-rule="evenodd"/><text fill="#FFFFFF" font-family="Calibri,Calibri_MSFontService,sans-serif" font-weight="400" font-size="32" transform="matrix(1 0 0 1 2484.85 668)">fill</text><text fill="#FFFFFF" font-family="Segoe UI,Segoe UI_MSFontService,sans-serif" font-weight="400" font-size="32" transform="matrix(1 0 0 1 2516.93 668)">TR</text><path d="M360 1706 2604 1706 2604 1732 2604 1758 360 1758Z" fill="#C00000" fill-rule="evenodd"/><text fill="#FFFFFF" font-family="Segoe UI,Segoe UI_MSFontService,sans-serif" font-weight="400" font-size="32" transform="matrix(1 0 0 1 1365.5 1744)">Sequence kernel</text><text fill="#7F7F7F" font-family="Segoe UI,Segoe UI_MSFontService,sans-serif" font-weight="400" font-size="37" transform="matrix(1 0 0 1 780.059 490)">Trigger</text><path d="M0 0 0.000360892 1304.04" stroke="#7F7F7F" stroke-width="2.29167" stroke-miterlimit="8" stroke-dasharray="9.16667 6.875 2.29167 6.875" fill="none" fill-rule="evenodd" transform="matrix(-1 0 0 1 2450 396)"/></g></svg>