<svg width="2462" height="1336" xmlns="http://www.w3.org/2000/svg" xmlns:xlink="http://www.w3.org/1999/xlink" xml:space="preserve" overflow="hidden"><defs><clipPath id="clip0"><rect x="185" y="368" width="2462" height="1336"/></clipPath></defs><g clip-path="url(#clip0)" transform="translate(-185 -368)"><rect x="2222" y="396" width="102" height="1194" fill="#F2F2F2" fill-opacity="0.501961"/><rect x="2222" y="439" width="16.9998" height="87" fill="#7F7F7F"/><text fill="#7F7F7F" font-family="Arial,Arial_MSFontService,sans-serif" font-weight="400" font-size="37" transform="matrix(1 0 0 1 2250.83 490)">Trigger</text><rect x="1704" y="396" width="102" height="1194" fill="#F2F2F2" fill-opacity="0.501961"/><rect x="1704" y="439" width="17.0002" height="87" fill="#7F7F7F"/><text fill="#7F7F7F" font-family="Arial,Arial_MSFontService,sans-serif" font-weight="400" font-size="37" transform="matrix(1 0 0 1 1732.92 490)">Trigger</text><rect x="1179" y="396" width="102" height="1194" fill="#F2F2F2" fill-opacity="0.501961"/><rect x="1179" y="439" width="16.9999" height="87" fill="#7F7F7F"/><text fill="#7F7F7F" font-family="Arial,Arial_MSFontService,sans-serif" font-weight="400" font-size="37" transform="matrix(1 0 0 1 1208.13 490)">Trigger</text><rect x="1925" y="1227" width="515" height="78" stroke="#4087A1" stroke-width="2.29167" stroke-miterlimit="8" fill="#5AB9DC"/><text fill="#FFFFFF" font-family="Segoe UI,Segoe UI_MSFontService,sans-serif" font-weight="400" font-size="37" transform="matrix(1 0 0 1 2112.41 1280)">Gradient</text><path d="M0 0 0.000360892 1304.04" stroke="#7F7F7F" stroke-width="2.29167" stroke-miterlimit="8" stroke-dasharray="9.16667 6.875 2.29167 6.875" fill="none" fill-rule="evenodd" transform="matrix(-1 0 0 1 364 396)"/><path d="M0 0 0.000360892 1304.04" stroke="#7F7F7F" stroke-width="2.29167" stroke-miterlimit="8" stroke-dasharray="9.16667 6.875 2.29167 6.875" fill="none" fill-rule="evenodd" transform="matrix(-1 0 0 1 884 390)"/><path d="M0 0 0.000360892 1304.04" stroke="#7F7F7F" stroke-width="2.29167" stroke-miterlimit="8" stroke-dasharray="9.16667 6.875 2.29167 6.875" fill="none" fill-rule="evenodd" transform="matrix(-1 0 0 1 1403 398)"/><path d="M0 0 0.000360892 1304.04" stroke="#7F7F7F" stroke-width="2.29167" stroke-miterlimit="8" stroke-dasharray="9.16667 6.875 2.29167 6.875" fill="none" fill-rule="evenodd" transform="matrix(-1 0 0 1 1922 396)"/><path d="M0 0 2348.99 0.000360892" stroke="#939393" stroke-width="2.29167" stroke-miterlimit="8" fill="none" fill-rule="evenodd" transform="matrix(1 0 0 -1 297 526)"/><path d="M0 0 2348.99 0.000360892" stroke="#939393" stroke-width="2.29167" stroke-miterlimit="8" fill="none" fill-rule="evenodd" transform="matrix(1 0 0 -1 297 786)"/><path d="M0 0 2348.99 0.000360892" stroke="#939393" stroke-width="2.29167" stroke-miterlimit="8" fill="none" fill-rule="evenodd" transform="matrix(1 0 0 -1 297 1046)"/><path d="M0 0 2348.99 0.000360892" stroke="#939393" stroke-width="2.29167" stroke-miterlimit="8" fill="none" fill-rule="evenodd" transform="matrix(1 0 0 -1 297 1305)"/><rect x="886" y="707" width="515" height="78" stroke="#4087A1" stroke-width="2.29167" stroke-miterlimit="8" fill="#5AB9DC"/><text fill="#FFFFFF" font-family="Segoe UI,Segoe UI_MSFontService,sans-serif" font-weight="400" font-size="37" transform="matrix(1 0 0 1 1073.74 760)">Gradient</text><text fill="#7F7F7F" font-family="Segoe UI,Segoe UI_MSFontService,sans-serif" font-weight="400" font-size="37" transform="matrix(1 0 0 1 295.934 420)">RF </text><text fill="#7F7F7F" font-family="Segoe UI,Segoe UI_MSFontService,sans-serif" font-weight="400" font-size="37" transform="matrix(1 0 0 1 219.163 464)">Trigger </text><text fill="#7F7F7F" font-family="Segoe UI,Segoe UI_MSFontService,sans-serif" font-weight="400" font-size="37" transform="matrix(1 0 0 1 263.278 508)">ADC</text><text fill="#7F7F7F" font-family="Segoe UI,Segoe UI_MSFontService,sans-serif" font-weight="400" font-size="37" transform="matrix(1 0 0 1 288.486 768)">GX</text><text fill="#7F7F7F" font-family="Segoe UI,Segoe UI_MSFontService,sans-serif" font-weight="400" font-size="37" transform="matrix(1 0 0 1 290.205 1028)">GY</text><text fill="#7F7F7F" font-family="Segoe UI,Segoe UI_MSFontService,sans-serif" font-weight="400" font-size="37" transform="matrix(1 0 0 1 289.059 1289)">GZ</text><path d="M2323 1154 2410 1154 2436 1180 2410 1206 2323 1206Z" fill="#004F9E" fill-rule="evenodd"/><path d="M0 0 0.000360892 1304.04" stroke="#7F7F7F" stroke-width="2.29167" stroke-miterlimit="8" stroke-dasharray="9.16667 6.875 2.29167 6.875" fill="none" fill-rule="evenodd" transform="matrix(-1 0 0 1 2443 396)"/><rect x="1405" y="967" width="515" height="78.0001" stroke="#4087A1" stroke-width="2.29167" stroke-miterlimit="8" fill="#5AB9DC"/><text fill="#FFFFFF" font-family="Segoe UI,Segoe UI_MSFontService,sans-serif" font-weight="400" font-size="37" transform="matrix(1 0 0 1 1592.37 1020)">Gradient</text><path d="M1806 900 1892 900 1918 926 1892 952 1806 952Z" fill="#004F9E" fill-rule="evenodd"/><rect x="668" y="396" width="102" height="1194" fill="#F2F2F2" fill-opacity="0.501961"/><rect x="668" y="439" width="17.0002" height="87" fill="#7F7F7F"/><text fill="#7F7F7F" font-family="Arial,Arial_MSFontService,sans-serif" font-weight="400" font-size="37" transform="matrix(-1.83697e-16 -1 1 -1.83697e-16 732.427 1098)">Gradient</text><text fill="#7F7F7F" font-family="Arial,Arial_MSFontService,sans-serif" font-weight="400" font-size="37" transform="matrix(-1.83697e-16 -1 1 -1.83697e-16 732.427 957)">-</text><text fill="#7F7F7F" font-family="Arial,Arial_MSFontService,sans-serif" font-weight="400" font-size="37" transform="matrix(-1.83697e-16 -1 1 -1.83697e-16 732.427 945)">free interval</text><text fill="#7F7F7F" font-family="Arial,Arial_MSFontService,sans-serif" font-weight="400" font-size="37" transform="matrix(1 0 0 1 697.085 490)">Trigger</text><text fill="#7F7F7F" font-family="Segoe UI,Segoe UI_MSFontService,sans-serif" font-weight="400" font-size="37" transform="matrix(1 0 0 1 1428.67 629)">Camera</text><text fill="#7F7F7F" font-family="Segoe UI,Segoe UI_MSFontService,sans-serif" font-weight="400" font-size="37" transform="matrix(1 0 0 1 1428.67 673)">AcqDuration</text><path d="M1281 629 1367 629 1393 655 1367 681 1281 681Z" fill="#004F9E" fill-rule="evenodd"/><rect x="364" y="1429" width="517" height="51.9999" fill="#C00000"/><text fill="#FFFFFF" font-family="Segoe UI,Segoe UI_MSFontService,sans-serif" font-weight="400" font-size="32" transform="matrix(1 0 0 1 548.13 1467)">Dynamic 1</text><rect x="883" y="1429" width="518" height="51.9999" fill="#C00000"/><text fill="#FFFFFF" font-family="Segoe UI,Segoe UI_MSFontService,sans-serif" font-weight="400" font-size="32" transform="matrix(1 0 0 1 1067.82 1467)">Dynamic 2</text><rect x="1403" y="1429" width="517" height="51.9999" fill="#C00000"/><text fill="#FFFFFF" font-family="Segoe UI,Segoe UI_MSFontService,sans-serif" font-weight="400" font-size="32" transform="matrix(1 0 0 1 1587.5 1467)">Dynamic 3</text><rect x="1923" y="1429" width="517" height="51.9999" fill="#C00000"/><text fill="#FFFFFF" font-family="Segoe UI,Segoe UI_MSFontService,sans-serif" font-weight="400" font-size="32" transform="matrix(1 0 0 1 2107.19 1467)">Dynamic 4</text><path d="M770 624 856 624 882 650 856 676 770 676Z" fill="#004F9E" fill-rule="evenodd"/></g></svg>