<svg width="2462" height="1336" xmlns="http://www.w3.org/2000/svg" xmlns:xlink="http://www.w3.org/1999/xlink" xml:space="preserve" overflow="hidden"><defs><clipPath id="clip0"><rect x="185" y="368" width="2462" height="1336"/></clipPath></defs><g clip-path="url(#clip0)" transform="translate(-185 -368)"><path d="M0 0 0.000360892 1304.04" stroke="#7F7F7F" stroke-width="2.29167" stroke-miterlimit="8" stroke-dasharray="9.16667 6.875 2.29167 6.875" fill="none" fill-rule="evenodd" transform="matrix(-1 0 0 1 364 396)"/><path d="M0 0 0.000360892 1304.04" stroke="#7F7F7F" stroke-width="2.29167" stroke-miterlimit="8" stroke-dasharray="9.16667 6.875 2.29167 6.875" fill="none" fill-rule="evenodd" transform="matrix(-1 0 0 1 1577 398)"/><path d="M0 0 2348.99 0.000360892" stroke="#939393" stroke-width="2.29167" stroke-miterlimit="8" fill="none" fill-rule="evenodd" transform="matrix(1 0 0 -1 297 526)"/><path d="M0 0 2348.99 0.000360892" stroke="#939393" stroke-width="2.29167" stroke-miterlimit="8" fill="none" fill-rule="evenodd" transform="matrix(1 0 0 -1 297 786)"/><path d="M0 0 2348.99 0.000360892" stroke="#939393" stroke-width="2.29167" stroke-miterlimit="8" fill="none" fill-rule="evenodd" transform="matrix(1 0 0 -1 297 1046)"/><path d="M0 0 2348.99 0.000360892" stroke="#939393" stroke-width="2.29167" stroke-miterlimit="8" fill="none" fill-rule="evenodd" transform="matrix(1 0 0 -1 297 1305)"/><text fill="#7F7F7F" font-family="Segoe UI,Segoe UI_MSFontService,sans-serif" font-weight="400" font-size="37" transform="matrix(1 0 0 1 295.934 420)">RF </text><text fill="#7F7F7F" font-family="Segoe UI,Segoe UI_MSFontService,sans-serif" font-weight="400" font-size="37" transform="matrix(1 0 0 1 219.163 464)">Trigger </text><text fill="#7F7F7F" font-family="Segoe UI,Segoe UI_MSFontService,sans-serif" font-weight="400" font-size="37" transform="matrix(1 0 0 1 263.278 508)">ADC</text><text fill="#7F7F7F" font-family="Segoe UI,Segoe UI_MSFontService,sans-serif" font-weight="400" font-size="37" transform="matrix(1 0 0 1 288.486 768)">GX</text><text fill="#7F7F7F" font-family="Segoe UI,Segoe UI_MSFontService,sans-serif" font-weight="400" font-size="37" transform="matrix(1 0 0 1 290.205 1028)">GY</text><text fill="#7F7F7F" font-family="Segoe UI,Segoe UI_MSFontService,sans-serif" font-weight="400" font-size="37" transform="matrix(1 0 0 1 289.059 1289)">GZ</text><rect x="1025" y="396" width="102" height="1194" fill="#F2F2F2" fill-opacity="0.501961"/><rect x="1025" y="439" width="16.9999" height="87" fill="#7F7F7F"/><text fill="#7F7F7F" font-family="Arial,Arial_MSFontService,sans-serif" font-weight="400" font-size="37" transform="matrix(-1.83697e-16 -1 1 -1.83697e-16 1089.37 1098)">Gradient</text><text fill="#7F7F7F" font-family="Arial,Arial_MSFontService,sans-serif" font-weight="400" font-size="37" transform="matrix(-1.83697e-16 -1 1 -1.83697e-16 1089.37 957)">-</text><text fill="#7F7F7F" font-family="Arial,Arial_MSFontService,sans-serif" font-weight="400" font-size="37" transform="matrix(-1.83697e-16 -1 1 -1.83697e-16 1089.37 945)">free interval</text><text fill="#7F7F7F" font-family="Arial,Arial_MSFontService,sans-serif" font-weight="400" font-size="37" transform="matrix(1 0 0 1 1054.03 490)">Trigger</text><path d="M1126 1046 1126 1046 1128.01 1079 1128.01 1079 1130 1046" fill="#5AB9DC" fill-rule="evenodd"/><path d="M1130 1046 1130 1046 1132 1012 1132 1012 1134 1046" fill="#5AB9DC" fill-rule="evenodd"/><path d="M1134 1046 1134 1046 1137 1090 1137 1090 1140 1046" fill="#5AB9DC" fill-rule="evenodd"/><path d="M1140 1046 1140 1046 1142.51 1001 1142.51 1001 1145 1046" fill="#5AB9DC" fill-rule="evenodd"/><path d="M1145 1046 1145 1046 1148.5 1101 1148.5 1101 1152 1046" fill="#5AB9DC" fill-rule="evenodd"/><path d="M1152 1046 1152 1046 1155.01 990 1155.01 990 1158 1046" fill="#5AB9DC" fill-rule="evenodd"/><path d="M1158 1046 1158 1046 1162 1113 1162 1113 1166 1046" fill="#5AB9DC" fill-rule="evenodd"/><path d="M1166 1046 1166 1046 1170.01 979 1170.01 979 1174 1046" fill="#5AB9DC" fill-rule="evenodd"/><path d="M1174 1046 1174 1046 1179 1124 1179 1124 1184 1046" fill="#5AB9DC" fill-rule="evenodd"/><path d="M1184 1046 1184 1046 1188.49 967 1188.49 967 1193 1046" fill="#5AB9DC" fill-rule="evenodd"/><path d="M1193 1046 1193 1046 1198.51 1135 1198.51 1135 1204 1046" fill="#5AB9DC" fill-rule="evenodd"/><path d="M1204 1046 1204 1046 1209.5 956 1209.5 956 1215 1046" fill="#5AB9DC" fill-rule="evenodd"/><path d="M1215 1046 1215 1046 1220.99 1146 1220.99 1146 1227 1046" fill="#5AB9DC" fill-rule="evenodd"/><path d="M1227 1046 1227 1046 1232.99 945 1232.99 945 1239 1046" fill="#5AB9DC" fill-rule="evenodd"/><path d="M1239 1046 1239 1046 1245.51 1157 1245.51 1157 1252 1046" fill="#5AB9DC" fill-rule="evenodd"/><path d="M1252 1046 1252 1046 1259.01 934 1259.01 934 1266 1046" fill="#5AB9DC" fill-rule="evenodd"/><path d="M1266 1046 1266 1046 1273.01 1168 1273.01 1168 1280 1046" fill="#5AB9DC" fill-rule="evenodd"/><path d="M1280 1046 1280 1046 1287.51 923 1287.51 923 1295 1046" fill="#5AB9DC" fill-rule="evenodd"/><path d="M1295 1046 1295 1046 1303.01 1180 1303.01 1180 1311 1046" fill="#5AB9DC" fill-rule="evenodd"/><path d="M1311 1046 1311 1046 1319.01 912 1319.01 912 1327 1046" fill="#5AB9DC" fill-rule="evenodd"/><path d="M1327 1046 1327 1046 1335.99 1191 1335.99 1191 1345 1046" fill="#5AB9DC" fill-rule="evenodd"/><path d="M1345 1046 1345 1046 1353.49 900 1353.49 900 1362 1046" fill="#5AB9DC" fill-rule="evenodd"/><path d="M1362 1046 1362 1046 1371.5 1202 1371.5 1202 1381 1046" fill="#5AB9DC" fill-rule="evenodd"/><path d="M1381 1046 1381 1046 1390.01 889 1390.01 889 1399 1046" fill="#5AB9DC" fill-rule="evenodd"/><path d="M1399 1046 1399 1046 1409.49 1213 1409.49 1213 1420 1046" fill="#5AB9DC" fill-rule="evenodd"/><path d="M1420 1046 1420 1046 1430 878 1430 878 1440 1046" fill="#5AB9DC" fill-rule="evenodd"/><path d="M1440 1046 1440 1046 1450.51 1224 1450.51 1224 1461 1046" fill="#5AB9DC" fill-rule="evenodd"/><path d="M1461 1046 1461 1046 1471.5 867 1471.5 867 1482 1046" fill="#5AB9DC" fill-rule="evenodd"/><path d="M1482 1046 1482 1046 1493.51 1235 1493.51 1235 1505 1046" fill="#5AB9DC" fill-rule="evenodd"/><path d="M1505 1046 1505 1046 1516.5 856 1516.5 856 1528 1046" fill="#5AB9DC" fill-rule="evenodd"/><path d="M1528 1046 1528 1046 1540.01 1247 1540.01 1247 1552 1046" fill="#5AB9DC" fill-rule="evenodd"/><path d="M1552 1046 1552 1046 1564 845 1564 845 1576 1046" fill="#5AB9DC" fill-rule="evenodd"/><path d="M0 0 0.000360892 1304.04" stroke="#7F7F7F" stroke-width="2.29167" stroke-miterlimit="8" stroke-dasharray="9.16667 6.875 2.29167 6.875" fill="none" fill-rule="evenodd" transform="matrix(-1 0 0 1 2127 398)"/><rect x="1576" y="396" width="101" height="1194" fill="#F2F2F2" fill-opacity="0.501961"/><rect x="1576" y="439" width="15.9998" height="87" fill="#7F7F7F"/><text fill="#7F7F7F" font-family="Arial,Arial_MSFontService,sans-serif" font-weight="400" font-size="37" transform="matrix(-1.83697e-16 -1 1 -1.83697e-16 1639.94 1098)">Gradient</text><text fill="#7F7F7F" font-family="Arial,Arial_MSFontService,sans-serif" font-weight="400" font-size="37" transform="matrix(-1.83697e-16 -1 1 -1.83697e-16 1639.94 957)">-</text><text fill="#7F7F7F" font-family="Arial,Arial_MSFontService,sans-serif" font-weight="400" font-size="37" transform="matrix(-1.83697e-16 -1 1 -1.83697e-16 1639.94 945)">free interval</text><text fill="#7F7F7F" font-family="Arial,Arial_MSFontService,sans-serif" font-weight="400" font-size="37" transform="matrix(1 0 0 1 1604.6 490)">Trigger</text><path d="M1677 1306 1677 1306 1679.01 1339 1679.01 1339 1681 1306" fill="#5AB9DC" fill-rule="evenodd"/><path d="M1681 1306 1681 1306 1683 1272 1683 1272 1685 1306" fill="#5AB9DC" fill-rule="evenodd"/><path d="M1685 1306 1685 1306 1687.5 1350 1687.5 1350 1690 1306" fill="#5AB9DC" fill-rule="evenodd"/><path d="M1690 1306 1690 1306 1693.01 1261 1693.01 1261 1696 1306" fill="#5AB9DC" fill-rule="evenodd"/><path d="M1696 1306 1696 1306 1699 1362 1699 1362 1702 1306" fill="#5AB9DC" fill-rule="evenodd"/><path d="M1702 1306 1702 1306 1705.51 1250 1705.51 1250 1709 1306" fill="#5AB9DC" fill-rule="evenodd"/><path d="M1709 1306 1709 1306 1713 1373 1713 1373 1717 1306" fill="#5AB9DC" fill-rule="evenodd"/><path d="M1717 1306 1717 1306 1721.01 1239 1721.01 1239 1725 1306" fill="#5AB9DC" fill-rule="evenodd"/><path d="M1725 1306 1725 1306 1729.5 1384 1729.5 1384 1734 1306" fill="#5AB9DC" fill-rule="evenodd"/><path d="M1734 1306 1734 1306 1738.99 1228 1738.99 1228 1744 1306" fill="#5AB9DC" fill-rule="evenodd"/><path d="M1744 1306 1744 1306 1749.51 1395 1749.51 1395 1755 1306" fill="#5AB9DC" fill-rule="evenodd"/><path d="M1755 1306 1755 1306 1760 1216 1760 1216 1765 1306" fill="#5AB9DC" fill-rule="evenodd"/><path d="M1765 1306 1765 1306 1770.99 1406 1770.99 1406 1777 1306" fill="#5AB9DC" fill-rule="evenodd"/><path d="M1777 1306 1777 1306 1782.99 1205 1782.99 1205 1789 1306" fill="#5AB9DC" fill-rule="evenodd"/><path d="M1789 1306 1789 1306 1796.01 1417 1796.01 1417 1803 1306" fill="#5AB9DC" fill-rule="evenodd"/><path d="M1803 1306 1803 1306 1809.51 1194 1809.51 1194 1816 1306" fill="#5AB9DC" fill-rule="evenodd"/><path d="M1816 1306 1816 1306 1823.51 1428 1823.51 1428 1831 1306" fill="#5AB9DC" fill-rule="evenodd"/><path d="M1831 1306 1831 1306 1838.51 1183 1838.51 1183 1846 1306" fill="#5AB9DC" fill-rule="evenodd"/><path d="M1846 1306 1846 1306 1854.01 1440 1854.01 1440 1862 1306" fill="#5AB9DC" fill-rule="evenodd"/><path d="M1862 1306 1862 1306 1870.01 1172 1870.01 1172 1878 1306" fill="#5AB9DC" fill-rule="evenodd"/><path d="M1878 1306 1878 1306 1886.49 1451 1886.49 1451 1895 1306" fill="#5AB9DC" fill-rule="evenodd"/><path d="M1895 1306 1895 1306 1903.99 1161 1903.99 1161 1913 1306" fill="#5AB9DC" fill-rule="evenodd"/><path d="M1913 1306 1913 1306 1922 1462 1922 1462 1931 1306" fill="#5AB9DC" fill-rule="evenodd"/><path d="M1931 1306 1931 1306 1940.51 1149 1940.51 1149 1950 1306" fill="#5AB9DC" fill-rule="evenodd"/><path d="M1950 1306 1950 1306 1959.99 1473 1959.99 1473 1970 1306" fill="#5AB9DC" fill-rule="evenodd"/><path d="M1970 1306 1970 1306 1980 1138 1980 1138 1990 1306" fill="#5AB9DC" fill-rule="evenodd"/><path d="M1990 1306 1990 1306 2001.01 1484 2001.01 1484 2012 1306" fill="#5AB9DC" fill-rule="evenodd"/><path d="M2012 1306 2012 1306 2022.5 1127 2022.5 1127 2033 1306" fill="#5AB9DC" fill-rule="evenodd"/><path d="M2033 1306 2033 1306 2044.51 1495 2044.51 1495 2056 1306" fill="#5AB9DC" fill-rule="evenodd"/><path d="M2056 1306 2056 1306 2067.5 1116 2067.5 1116 2079 1306" fill="#5AB9DC" fill-rule="evenodd"/><path d="M2079 1306 2079 1306 2091.01 1507 2091.01 1507 2103 1306" fill="#5AB9DC" fill-rule="evenodd"/><path d="M2103 1306 2103 1306 2115 1105 2115 1105 2127 1306" fill="#5AB9DC" fill-rule="evenodd"/><path d="M0 0 0.000360892 1304.04" stroke="#7F7F7F" stroke-width="2.29167" stroke-miterlimit="8" stroke-dasharray="9.16667 6.875 2.29167 6.875" fill="none" fill-rule="evenodd" transform="matrix(-1 0 0 1 1024 398)"/><rect x="473" y="396" width="102" height="1194" fill="#F2F2F2" fill-opacity="0.501961"/><rect x="473" y="439" width="16.0002" height="87" fill="#7F7F7F"/><text fill="#7F7F7F" font-family="Arial,Arial_MSFontService,sans-serif" font-weight="400" font-size="37" transform="matrix(-1.83697e-16 -1 1 -1.83697e-16 537.076 1098)">Gradient</text><text fill="#7F7F7F" font-family="Arial,Arial_MSFontService,sans-serif" font-weight="400" font-size="37" transform="matrix(-1.83697e-16 -1 1 -1.83697e-16 537.076 957)">-</text><text fill="#7F7F7F" font-family="Arial,Arial_MSFontService,sans-serif" font-weight="400" font-size="37" transform="matrix(-1.83697e-16 -1 1 -1.83697e-16 537.076 945)">free interval</text><text fill="#7F7F7F" font-family="Arial,Arial_MSFontService,sans-serif" font-weight="400" font-size="37" transform="matrix(1 0 0 1 501.733 490)">Trigger</text><path d="M574 787 574 787 576.009 820 576.009 820 578 787" fill="#5AB9DC" fill-rule="evenodd"/><path d="M578 787 578 787 580 753 580 753 582 787" fill="#5AB9DC" fill-rule="evenodd"/><path d="M582 787 582 787 584.5 831 584.5 831 587 787" fill="#5AB9DC" fill-rule="evenodd"/><path d="M587 787 587 787 590.01 742 590.01 742 593 787" fill="#5AB9DC" fill-rule="evenodd"/><path d="M593 787 593 787 596 842 596 842 599 787" fill="#5AB9DC" fill-rule="evenodd"/><path d="M599 787 599 787 602.509 731 602.509 731 606 787" fill="#5AB9DC" fill-rule="evenodd"/><path d="M606 787 606 787 610 854 610 854 614 787" fill="#5AB9DC" fill-rule="evenodd"/><path d="M614 787 614 787 618.008 720 618.008 720 622 787" fill="#5AB9DC" fill-rule="evenodd"/><path d="M622 787 622 787 627 865 627 865 632 787" fill="#5AB9DC" fill-rule="evenodd"/><path d="M632 787 632 787 636.492 708 636.492 708 641 787" fill="#5AB9DC" fill-rule="evenodd"/><path d="M641 787 641 787 646.509 876 646.509 876 652 787" fill="#5AB9DC" fill-rule="evenodd"/><path d="M652 787 652 787 657 697 657 697 662 787" fill="#5AB9DC" fill-rule="evenodd"/><path d="M662 787 662 787 667.992 887 667.992 887 674 787" fill="#5AB9DC" fill-rule="evenodd"/><path d="M674 787 674 787 679.992 686 679.992 686 686 787" fill="#5AB9DC" fill-rule="evenodd"/><path d="M686 787 686 787 693.009 898 693.009 898 700 787" fill="#5AB9DC" fill-rule="evenodd"/><path d="M700 787 700 787 706.508 675 706.508 675 713 787" fill="#5AB9DC" fill-rule="evenodd"/><path d="M713 787 713 787 720.509 909 720.509 909 728 787" fill="#5AB9DC" fill-rule="evenodd"/><path d="M728 787 728 787 735.509 664 735.509 664 743 787" fill="#5AB9DC" fill-rule="evenodd"/><path d="M743 787 743 787 751.008 921 751.008 921 759 787" fill="#5AB9DC" fill-rule="evenodd"/><path d="M759 787 759 787 767.009 653 767.009 653 775 787" fill="#5AB9DC" fill-rule="evenodd"/><path d="M775 787 775 787 783.492 932 783.492 932 792 787" fill="#5AB9DC" fill-rule="evenodd"/><path d="M792 787 792 787 800.991 642 800.991 642 810 787" fill="#5AB9DC" fill-rule="evenodd"/><path d="M810 787 810 787 819 943 819 943 828 787" fill="#5AB9DC" fill-rule="evenodd"/><path d="M828 787 828 787 837.509 630 837.509 630 847 787" fill="#5AB9DC" fill-rule="evenodd"/><path d="M847 787 847 787 856.992 954 856.992 954 867 787" fill="#5AB9DC" fill-rule="evenodd"/><path d="M867 787 867 787 877 619 877 619 887 787" fill="#5AB9DC" fill-rule="evenodd"/><path d="M887 787 887 787 898.009 965 898.009 965 909 787" fill="#5AB9DC" fill-rule="evenodd"/><path d="M909 787 909 787 919.5 608 919.5 608 930 787" fill="#5AB9DC" fill-rule="evenodd"/><path d="M930 787 930 787 941.508 976 941.508 976 953 787" fill="#5AB9DC" fill-rule="evenodd"/><path d="M953 787 953 787 964.5 597 964.5 597 976 787" fill="#5AB9DC" fill-rule="evenodd"/><path d="M976 787 976 787 988.009 988 988.009 988 1000 787" fill="#5AB9DC" fill-rule="evenodd"/><path d="M1000 787 1000 787 1012 586 1012 586 1024 787" fill="#5AB9DC" fill-rule="evenodd"/><rect x="364" y="1587" width="2281" height="51.9999" fill="#C00000"/><text fill="#FFFFFF" font-family="Segoe UI,Segoe UI_MSFontService,sans-serif" font-weight="400" font-size="32" transform="matrix(1 0 0 1 1393.78 1625)">Sequence</text><text fill="#FFFFFF" font-family="Segoe UI,Segoe UI_MSFontService,sans-serif" font-weight="400" font-size="32" transform="matrix(1 0 0 1 1539.87 1625)">kenel</text></g></svg>