<svg width="2462" height="1334" xmlns="http://www.w3.org/2000/svg" xmlns:xlink="http://www.w3.org/1999/xlink" xml:space="preserve" overflow="hidden"><g transform="translate(-185 -368)"><path d="M0 0 0.000360892 1304.04" stroke="#7F7F7F" stroke-width="2.29167" stroke-miterlimit="8" stroke-dasharray="9.16667 6.875 2.29167 6.875" fill="none" fill-rule="evenodd" transform="matrix(-1 0 0 1 1782 396)"/><text fill="#7F7F7F" font-family="Segoe UI,Segoe UI_MSFontService,sans-serif" font-weight="400" font-size="37" transform="matrix(1 0 0 1 295.934 420)">RF </text><text fill="#7F7F7F" font-family="Segoe UI,Segoe UI_MSFontService,sans-serif" font-weight="400" font-size="37" transform="matrix(1 0 0 1 219.163 464)">Trigger </text><text fill="#7F7F7F" font-family="Segoe UI,Segoe UI_MSFontService,sans-serif" font-weight="400" font-size="37" transform="matrix(1 0 0 1 263.278 508)">ADC</text><text fill="#7F7F7F" font-family="Segoe UI,Segoe UI_MSFontService,sans-serif" font-weight="400" font-size="37" transform="matrix(1 0 0 1 288.486 768)">GX</text><text fill="#7F7F7F" font-family="Segoe UI,Segoe UI_MSFontService,sans-serif" font-weight="400" font-size="37" transform="matrix(1 0 0 1 290.205 1028)">GY</text><text fill="#7F7F7F" font-family="Segoe UI,Segoe UI_MSFontService,sans-serif" font-weight="400" font-size="37" transform="matrix(1 0 0 1 289.059 1289)">GZ</text><rect x="1186" y="396" width="209" height="1194" fill="#F2F2F2" fill-opacity="0.501961"/><rect x="1186" y="439" width="16.0001" height="87" fill="#7F7F7F"/><path d="M1397 1046 1397 1046 1527 811 1527 811 1657 1046" fill="#1B6580" fill-rule="evenodd"/><path d="M1397 1046 1397 1046 1505.5 850 1505.5 850 1614 1046" fill="#2997C0" fill-rule="evenodd"/><path d="M1397 1046 1397 1046 1483.5 889 1483.5 889 1570 1046" fill="#9CD5EA" fill-rule="evenodd"/><path d="M1397 1046 1397 1046 1462 928 1462 928 1527 1046" fill="#BDE3F1" fill-rule="evenodd"/><path d="M1397 1046 1397 1046 1440.5 967 1440.5 967 1484 1046" fill="#DEF1F8" fill-rule="evenodd"/><path d="M0 0 0.000360892 1304.04" stroke="#7F7F7F" stroke-width="2.29167" stroke-miterlimit="8" stroke-dasharray="9.16667 6.875 2.29167 6.875" fill="none" fill-rule="evenodd" transform="matrix(-1 0 0 1 364 396)"/><path d="M0 0 0.000360892 1304.04" stroke="#7F7F7F" stroke-width="2.29167" stroke-miterlimit="8" stroke-dasharray="9.16667 6.875 2.29167 6.875" fill="none" fill-rule="evenodd" transform="matrix(-1 0 0 1 2491 396)"/><path d="M0 0 0.000360892 1304.04" stroke="#7F7F7F" stroke-width="2.29167" stroke-miterlimit="8" stroke-dasharray="9.16667 6.875 2.29167 6.875" fill="none" fill-rule="evenodd" transform="matrix(-1 0 0 1 1072 396)"/><rect x="1892" y="396" width="210" height="1194" fill="#F2F2F2" fill-opacity="0.501961"/><rect x="1892" y="439" width="16.9999" height="87" fill="#7F7F7F"/><path d="M2102 1307 2102 1307 2232 1072 2232 1072 2362 1307" fill="#1B6580" fill-rule="evenodd"/><path d="M2102 1307 2102 1307 2210 1111 2210 1111 2318 1307" fill="#2997C0" fill-rule="evenodd"/><path d="M2102 1307 2102 1307 2188.5 1150 2188.5 1150 2275 1307" fill="#9CD5EA" fill-rule="evenodd"/><path d="M2102 1307 2102 1307 2167 1190 2167 1190 2232 1307" fill="#BDE3F1" fill-rule="evenodd"/><path d="M2102 1307 2102 1307 2145.5 1229 2145.5 1229 2189 1307" fill="#DEF1F8" fill-rule="evenodd"/><rect x="473" y="396" width="209" height="1194" fill="#F2F2F2" fill-opacity="0.501961"/><rect x="473" y="439" width="16.0002" height="87" fill="#7F7F7F"/><text fill="#7F7F7F" font-family="Segoe UI,Segoe UI_MSFontService,sans-serif" font-weight="400" font-size="37" transform="matrix(-1.83697e-16 -1 1 -1.83697e-16 537.076 1099)">Gradient</text><text fill="#7F7F7F" font-family="Segoe UI,Segoe UI_MSFontService,sans-serif" font-weight="400" font-size="37" transform="matrix(-1.83697e-16 -1 1 -1.83697e-16 537.076 959)">-</text><text fill="#7F7F7F" font-family="Segoe UI,Segoe UI_MSFontService,sans-serif" font-weight="400" font-size="37" transform="matrix(-1.83697e-16 -1 1 -1.83697e-16 537.076 944)">free interval</text><text fill="#7F7F7F" font-family="Segoe UI,Segoe UI_MSFontService,sans-serif" font-weight="400" font-size="37" transform="matrix(1 0 0 1 501.733 490)">Trigger</text><path d="M682 785 682 785 812 550 812 550 942 785" fill="#1B6580" fill-rule="evenodd"/><path d="M682 785 682 785 790.5 590 790.5 590 899 785" fill="#2997C0" fill-rule="evenodd"/><path d="M682 785 682 785 768.5 629 768.5 629 855 785" fill="#9CD5EA" fill-rule="evenodd"/><path d="M682 785 682 785 747 668 747 668 812 785" fill="#BDE3F1" fill-rule="evenodd"/><path d="M682 785 682 785 725.5 707 725.5 707 769 785" fill="#DEF1F8" fill-rule="evenodd"/><rect x="364" y="1587" width="709" height="51.9999" fill="#C00000"/><text fill="#FFFFFF" font-family="Segoe UI,Segoe UI_MSFontService,sans-serif" font-weight="400" font-size="32" transform="matrix(1 0 0 1 601.838 1625)">Sequence kernel</text><path d="M473 1514 1046 1514 1072 1540 1046 1566 473 1566Z" fill="#004F9E" fill-rule="evenodd"/><text fill="#FFFFFF" font-family="Segoe UI,Segoe UI_MSFontService,sans-serif" font-weight="400" font-size="32" transform="matrix(1 0 0 1 623.198 1551)">CameraAcqDuration</text><path d="M0 0 2348.99 0.000360892" stroke="#939393" stroke-width="2.29167" stroke-miterlimit="8" fill="none" fill-rule="evenodd" transform="matrix(1 0 0 -1 297 526)"/><path d="M0 0 2348.99 0.000360892" stroke="#939393" stroke-width="2.29167" stroke-miterlimit="8" fill="none" fill-rule="evenodd" transform="matrix(1 0 0 -1 297 786)"/><path d="M0 0 2348.99 0.000360892" stroke="#939393" stroke-width="2.29167" stroke-miterlimit="8" fill="none" fill-rule="evenodd" transform="matrix(1 0 0 -1 297 1046)"/><path d="M0 0 2348.99 0.000360892" stroke="#939393" stroke-width="2.29167" stroke-miterlimit="8" fill="none" fill-rule="evenodd" transform="matrix(1 0 0 -1 297 1305)"/></g></svg>