<svg width="2828" height="1403" xmlns="http://www.w3.org/2000/svg" xmlns:xlink="http://www.w3.org/1999/xlink" xml:space="preserve" overflow="hidden"><defs><clipPath id="clip0"><rect x="185" y="368" width="2828" height="1403"/></clipPath></defs><g clip-path="url(#clip0)" transform="translate(-185 -368)"><path d="M0 0 0.000360892 1304.04" stroke="#7F7F7F" stroke-width="2.29167" stroke-miterlimit="8" stroke-dasharray="9.16667 6.875 2.29167 6.875" fill="none" fill-rule="evenodd" transform="matrix(-1 0 0 1 360 396)"/><path d="M0 0 0.000360892 1304.04" stroke="#7F7F7F" stroke-width="2.29167" stroke-miterlimit="8" stroke-dasharray="9.16667 6.875 2.29167 6.875" fill="none" fill-rule="evenodd" transform="matrix(-1 0 0 1 2939 398)"/><path d="M0 0 0.000360892 1304.04" stroke="#7F7F7F" stroke-width="2.29167" stroke-miterlimit="8" stroke-dasharray="9.16667 6.875 2.29167 6.875" fill="none" fill-rule="evenodd" transform="matrix(-1 0 0 1 1265 396)"/><path d="M0 0 0.000360892 1304.04" stroke="#7F7F7F" stroke-width="2.29167" stroke-miterlimit="8" stroke-dasharray="9.16667 6.875 2.29167 6.875" fill="none" fill-rule="evenodd" transform="matrix(-1 0 0 1 1399 396)"/><path d="M0 0 0.000360892 1304.04" stroke="#7F7F7F" stroke-width="2.29167" stroke-miterlimit="8" stroke-dasharray="9.16667 6.875 2.29167 6.875" fill="none" fill-rule="evenodd" transform="matrix(-1 0 0 1 456 396)"/><path d="M0 0 2714.74 0.000360892" stroke="#939393" stroke-width="2.29167" stroke-miterlimit="8" fill="none" fill-rule="evenodd" transform="matrix(1 0 0 -1 297 527)"/><path d="M0 0 2714.74 0.000360892" stroke="#939393" stroke-width="2.29167" stroke-miterlimit="8" fill="none" fill-rule="evenodd" transform="matrix(1 0 0 -1 297 786)"/><path d="M0 0 2714.74 0.000360892" stroke="#939393" stroke-width="2.29167" stroke-miterlimit="8" fill="none" fill-rule="evenodd" transform="matrix(1 0 0 -1 297 1046)"/><path d="M0 0 2714.74 0.000360892" stroke="#939393" stroke-width="2.29167" stroke-miterlimit="8" fill="none" fill-rule="evenodd" transform="matrix(1 0 0 -1 297 1305)"/><rect x="945" y="396" width="102" height="1194" fill="#F2F2F2" fill-opacity="0.501961"/><path d="M553 1305 595.809 1227 770.192 1227 813 1305Z" stroke="#4087A1" stroke-width="2.29167" stroke-miterlimit="8" fill="#5AB9DC" fill-rule="evenodd"/><path d="M942 1305 899.191 1383 855.809 1383 813 1305Z" stroke="#4087A1" stroke-width="2.29167" stroke-miterlimit="8" fill="#5AB9DC" fill-rule="evenodd"/><rect x="945" y="439" width="17.0002" height="87" fill="#7F7F7F"/><path d="M1399 786 1441.81 708 1590.19 708 1633 786Z" stroke="#4087A1" stroke-width="2.29167" stroke-miterlimit="8" fill="#5AB9DC" fill-rule="evenodd"/><path d="M1399 786 1356.19 864 1311.81 864 1269 786Z" stroke="#4087A1" stroke-width="2.29167" stroke-miterlimit="8" fill="#5AB9DC" fill-rule="evenodd"/><path d="M1268 1046 1310.81 968 1355.19 968 1398 1046Z" stroke="#4087A1" stroke-width="2.29167" stroke-miterlimit="8" fill="#5AB9DC" fill-rule="evenodd"/><path d="M945 630 1239 630 1265 656 1239 682 945 682Z" fill="#005EBB" fill-rule="evenodd"/><text fill="#FFFFFF" font-family="Calibri,Calibri_MSFontService,sans-serif" font-weight="400" font-size="32" transform="matrix(1 0 0 1 1066.17 667)">fill</text><text fill="#FFFFFF" font-family="Segoe UI,Segoe UI_MSFontService,sans-serif" font-weight="400" font-size="32" transform="matrix(1 0 0 1 1098.25 667)">TE</text><text fill="#7F7F7F" font-family="Segoe UI,Segoe UI_MSFontService,sans-serif" font-weight="400" font-size="37" transform="matrix(1 0 0 1 295.934 420)">RF </text><text fill="#7F7F7F" font-family="Segoe UI,Segoe UI_MSFontService,sans-serif" font-weight="400" font-size="37" transform="matrix(1 0 0 1 219.163 464)">Trigger </text><text fill="#7F7F7F" font-family="Segoe UI,Segoe UI_MSFontService,sans-serif" font-weight="400" font-size="37" transform="matrix(1 0 0 1 263.278 508)">ADC</text><text fill="#7F7F7F" font-family="Segoe UI,Segoe UI_MSFontService,sans-serif" font-weight="400" font-size="37" transform="matrix(1 0 0 1 288.486 768)">GX</text><text fill="#7F7F7F" font-family="Segoe UI,Segoe UI_MSFontService,sans-serif" font-weight="400" font-size="37" transform="matrix(1 0 0 1 290.205 1028)">GY</text><text fill="#7F7F7F" font-family="Segoe UI,Segoe UI_MSFontService,sans-serif" font-weight="400" font-size="37" transform="matrix(1 0 0 1 289.059 1289)">GZ</text><rect x="1412" y="442" width="208" height="86.9999" fill="#7F7F7F"/><text fill="#FFFFFF" font-family="Segoe UI,Segoe UI_MSFontService,sans-serif" font-weight="400" font-size="46" transform="matrix(1 0 0 1 1470.51 503)">ADC </text><text fill="#7F7F7F" font-family="Segoe UI,Segoe UI_MSFontService,sans-serif" font-weight="400" font-size="37" transform="matrix(-1.83697e-16 -1 1 -1.83697e-16 1009.44 1099)">Gradient</text><text fill="#7F7F7F" font-family="Segoe UI,Segoe UI_MSFontService,sans-serif" font-weight="400" font-size="37" transform="matrix(-1.83697e-16 -1 1 -1.83697e-16 1009.44 959)">-</text><text fill="#7F7F7F" font-family="Segoe UI,Segoe UI_MSFontService,sans-serif" font-weight="400" font-size="37" transform="matrix(-1.83697e-16 -1 1 -1.83697e-16 1009.44 944)">free interval</text><path d="M423 525C423 485.788 437.551 454 455.5 454 473.449 454 488 485.788 488 525 488 564.212 473.449 596 455.5 596 437.551 596 423 564.212 423 525Z" fill="#7F7F7F" fill-rule="evenodd"/><path d="M360 1706 2947 1706 2947 1732 2947 1758 360 1758Z" fill="#C00000" fill-rule="evenodd"/><text fill="#FFFFFF" font-family="Segoe UI,Segoe UI_MSFontService,sans-serif" font-weight="400" font-size="32" transform="matrix(1 0 0 1 1537.13 1744)">Sequence kernel</text><text fill="#7F7F7F" font-family="Segoe UI,Segoe UI_MSFontService,sans-serif" font-weight="400" font-size="37" transform="matrix(1 0 0 1 974.094 490)">Trigger</text><path d="M374 1303 416.809 1225 494.191 1225 537 1303Z" stroke="#4087A1" stroke-width="2.29167" stroke-miterlimit="8" fill="#5AB9DC" fill-rule="evenodd"/><path d="M653 527.5C653 488.012 667.551 456 685.5 456 703.449 456 718 488.012 718 527.5 718 566.989 703.449 599 685.5 599 667.551 599 653 566.989 653 527.5Z" fill="#7F7F7F" fill-rule="evenodd"/><path d="M718 527C718 503.252 729.641 484 744 484 758.359 484 770 503.252 770 527 770 550.748 758.359 570 744 570 729.641 570 718 550.748 718 527Z" fill="#7F7F7F" fill-rule="evenodd"/><path d="M601 527C601 503.252 612.641 484 627 484 641.359 484 653 503.252 653 527 653 550.748 641.359 570 627 570 612.641 570 601 550.748 601 527Z" fill="#7F7F7F" fill-rule="evenodd"/><path d="M0 0 0.000360892 1304.04" stroke="#7F7F7F" stroke-width="2.29167" stroke-miterlimit="8" stroke-dasharray="9.16667 6.875 2.29167 6.875" fill="none" fill-rule="evenodd" transform="matrix(-1 0 0 1 684 396)"/><path d="M1867 786 1824.19 864 1675.81 864 1633 786Z" stroke="#4087A1" stroke-width="2.29167" stroke-miterlimit="8" fill="#5AB9DC" fill-rule="evenodd"/><path d="M1867 786 1909.81 708 2057.19 708 2100 786Z" stroke="#4087A1" stroke-width="2.29167" stroke-miterlimit="8" fill="#5AB9DC" fill-rule="evenodd"/><path d="M2334 786 2291.19 864 2142.81 864 2100 786Z" stroke="#4087A1" stroke-width="2.29167" stroke-miterlimit="8" fill="#5AB9DC" fill-rule="evenodd"/><path d="M2334 786 2376.81 708 2525.19 708 2568 786Z" stroke="#4087A1" stroke-width="2.29167" stroke-miterlimit="8" fill="#5AB9DC" fill-rule="evenodd"/><path d="M2802 786 2759.19 864 2610.81 864 2568 786Z" stroke="#4087A1" stroke-width="2.29167" stroke-miterlimit="8" fill="#5AB9DC" fill-rule="evenodd"/><path d="M1646 1046 1632.5 1076 1632.5 1076 1619 1046Z" stroke="#4087A1" stroke-width="2.29167" stroke-miterlimit="8" fill="#5AB9DC" fill-rule="evenodd"/><path d="M1879 1046 1865.5 1076 1865.5 1076 1852 1046Z" stroke="#4087A1" stroke-width="2.29167" stroke-miterlimit="8" fill="#5AB9DC" fill-rule="evenodd"/><path d="M2109 1046 2095.5 1076 2095.5 1076 2082 1046Z" stroke="#4087A1" stroke-width="2.29167" stroke-miterlimit="8" fill="#5AB9DC" fill-rule="evenodd"/><path d="M2340 1046 2326.5 1076 2326.5 1076 2313 1046Z" stroke="#4087A1" stroke-width="2.29167" stroke-miterlimit="8" fill="#5AB9DC" fill-rule="evenodd"/><path d="M2581 1046 2567.5 1076 2567.5 1076 2554 1046Z" stroke="#4087A1" stroke-width="2.29167" stroke-miterlimit="8" fill="#5AB9DC" fill-rule="evenodd"/><rect x="1646" y="442" width="208" height="86.9999" fill="#7F7F7F"/><text fill="#FFFFFF" font-family="Segoe UI,Segoe UI_MSFontService,sans-serif" font-weight="400" font-size="46" transform="matrix(1 0 0 1 1704.37 503)">ADC </text><rect x="1879" y="442" width="208" height="86.9999" fill="#7F7F7F"/><text fill="#FFFFFF" font-family="Segoe UI,Segoe UI_MSFontService,sans-serif" font-weight="400" font-size="46" transform="matrix(1 0 0 1 1938.12 503)">ADC </text><rect x="2108" y="442" width="208" height="86.9999" fill="#7F7F7F"/><text fill="#FFFFFF" font-family="Segoe UI,Segoe UI_MSFontService,sans-serif" font-weight="400" font-size="46" transform="matrix(1 0 0 1 2167.04 503)">ADC </text><rect x="2347" y="442" width="207" height="86.9999" fill="#7F7F7F"/><text fill="#FFFFFF" font-family="Segoe UI,Segoe UI_MSFontService,sans-serif" font-weight="400" font-size="46" transform="matrix(1 0 0 1 2405.3 503)">ADC </text><rect x="2585" y="442" width="208" height="86.9999" fill="#7F7F7F"/><text fill="#FFFFFF" font-family="Segoe UI,Segoe UI_MSFontService,sans-serif" font-weight="400" font-size="46" transform="matrix(1 0 0 1 2643.57 503)">ADC </text><path d="M0 0 0.000360892 1304.04" stroke="#7F7F7F" stroke-width="2.29167" stroke-miterlimit="8" stroke-dasharray="9.16667 6.875 2.29167 6.875" fill="none" fill-rule="evenodd" transform="matrix(-1 0 0 1 1413 396)"/><path d="M0 0 0.000360892 1304.04" stroke="#7F7F7F" stroke-width="2.29167" stroke-miterlimit="8" stroke-dasharray="9.16667 6.875 2.29167 6.875" fill="none" fill-rule="evenodd" transform="matrix(-1 0 0 1 1619 398)"/><path d="M0 0 0.000360892 1304.04" stroke="#7F7F7F" stroke-width="2.29167" stroke-miterlimit="8" stroke-dasharray="9.16667 6.875 2.29167 6.875" fill="none" fill-rule="evenodd" transform="matrix(-1 0 0 1 1646 398)"/><path d="M0 0 0.000360892 1304.04" stroke="#7F7F7F" stroke-width="2.29167" stroke-miterlimit="8" stroke-dasharray="9.16667 6.875 2.29167 6.875" fill="none" fill-rule="evenodd" transform="matrix(-1 0 0 1 2802 398)"/><path d="M2802 631 2914 631 2940 657 2914 683 2802 683Z" fill="#005EBB" fill-rule="evenodd"/><text fill="#FFFFFF" font-family="Calibri,Calibri_MSFontService,sans-serif" font-weight="400" font-size="32" transform="matrix(1 0 0 1 2830.75 668)">fill</text><text fill="#FFFFFF" font-family="Segoe UI,Segoe UI_MSFontService,sans-serif" font-weight="400" font-size="32" transform="matrix(1 0 0 1 2862.83 668)">TR</text><path d="M0 0 0.000360892 1304.04" stroke="#7F7F7F" stroke-width="2.29167" stroke-miterlimit="8" stroke-dasharray="9.16667 6.875 2.29167 6.875" fill="none" fill-rule="evenodd" transform="matrix(-1 0 0 1 2213 398)"/><path d="M684 1435 2186 1435 2212 1461 2186 1487 684 1487Z" fill="#002060" fill-rule="evenodd"/><text fill="#FFFFFF" font-family="Segoe UI,Segoe UI_MSFontService,sans-serif" font-weight="400" font-size="32" transform="matrix(1 0 0 1 1425.3 1473)">TE</text><path d="M360 1574 2913 1574 2939 1600 2913 1626 360 1626Z" fill="#002060" fill-rule="evenodd"/><text fill="#FFFFFF" font-family="Segoe UI,Segoe UI_MSFontService,sans-serif" font-weight="400" font-size="32" transform="matrix(1 0 0 1 1624.94 1612)">TR</text><path d="M945 1170 2775 1170 2801 1196 2775 1222 945 1222Z" fill="#004F9E" fill-rule="evenodd"/><text fill="#FFFFFF" font-family="Segoe UI,Segoe UI_MSFontService,sans-serif" font-weight="400" font-size="32" transform="matrix(1 0 0 1 1723.86 1207)">CameraAcqDuration</text><path d="M1413 631 1618 631 1644 657 1618 683 1413 683Z" fill="#005EBB" fill-rule="evenodd"/><text fill="#FFFFFF" font-family="Calibri,Calibri_MSFontService,sans-serif" font-weight="400" font-size="32" transform="matrix(1 0 0 1 1440.38 668)">echoSpacing</text><path d="M945 560 1385 560 1411 586 1385 612 945 612Z" fill="#2894FF" fill-rule="evenodd"/><text fill="#FFFFFF" font-family="Segoe UI,Segoe UI_MSFontService,sans-serif" font-weight="400" font-size="32" transform="matrix(1 0 0 1 980.64 597)">TriggerToScannerAcqDelay</text></g></svg>