<svg width="1576" height="1815" xmlns="http://www.w3.org/2000/svg" xmlns:xlink="http://www.w3.org/1999/xlink" xml:space="preserve" overflow="hidden"><defs><clipPath id="clip0"><rect x="173" y="253" width="1576" height="1815"/></clipPath></defs><g clip-path="url(#clip0)" transform="translate(-173 -253)"><path d="M5.07708-0.900073 168.551 921.218 158.397 923.018-5.07708 0.900073ZM177.805 914.339 167.974 947.502 147.343 919.74Z" transform="matrix(1 0 0 -1 431 1464.5)"/><path d="M5.15625-2.04613e-06 5.1566 883.67-5.1559 883.67-5.15625 2.04613e-06ZM15.4691 878.511 0.000360892 909.449-15.4684 878.511Z" transform="matrix(-1 0 0 1 645 537)"/><path d="M389.156 536.998 389.515 1420.67 379.203 1420.67 378.844 537.002ZM399.826 1415.5 384.37 1446.45 368.888 1415.52Z"/><path d="M1619 472C1619 436.101 1648.1 407 1684 407 1719.9 407 1749 436.101 1749 472 1749 507.898 1719.9 537 1684 537 1648.1 537 1619 507.898 1619 472Z" fill="#C00000" fill-rule="evenodd" fill-opacity="0.0509804"/><text fill="#FFFFFF" font-family="Segoe UI,Segoe UI_MSFontService,sans-serif" font-weight="400" font-size="46" transform="matrix(1 0 0 1 1659.38 489)">26</text><path d="M1619 731C1619 695.101 1648.1 666 1684 666 1719.9 666 1749 695.101 1749 731 1749 766.899 1719.9 796 1684 796 1648.1 796 1619 766.899 1619 731Z" fill="#002060" fill-rule="evenodd" fill-opacity="0.0509804"/><text fill="#FFFFFF" font-family="Segoe UI,Segoe UI_MSFontService,sans-serif" font-weight="400" font-size="46" transform="matrix(1 0 0 1 1659.38 749)">27</text><path d="M1619 991C1619 955.102 1648.1 926 1684 926 1719.9 926 1749 955.102 1749 991 1749 1026.9 1719.9 1056 1684 1056 1648.1 1056 1619 1026.9 1619 991Z" fill="#002060" fill-rule="evenodd" fill-opacity="0.0509804"/><text fill="#FFFFFF" font-family="Segoe UI,Segoe UI_MSFontService,sans-serif" font-weight="400" font-size="46" transform="matrix(1 0 0 1 1659.38 1009)">28</text><path d="M1619 1251C1619 1215.1 1648.1 1186 1684 1186 1719.9 1186 1749 1215.1 1749 1251 1749 1286.9 1719.9 1316 1684 1316 1648.1 1316 1619 1286.9 1619 1251Z" fill="#002060" fill-rule="evenodd" fill-opacity="0.0509804"/><text fill="#FFFFFF" font-family="Segoe UI,Segoe UI_MSFontService,sans-serif" font-weight="400" font-size="46" transform="matrix(1 0 0 1 1659.38 1269)">29</text><path d="M1619 1511C1619 1475.1 1648.1 1446 1684 1446 1719.9 1446 1749 1475.1 1749 1511 1749 1546.9 1719.9 1576 1684 1576 1648.1 1576 1619 1546.9 1619 1511Z" fill="#002060" fill-rule="evenodd" fill-opacity="0.0509804"/><text fill="#FFFFFF" font-family="Segoe UI,Segoe UI_MSFontService,sans-serif" font-weight="400" font-size="46" transform="matrix(1 0 0 1 1659.38 1528)">30</text><path d="M320 472C320 436.101 349.102 407 385 407 420.898 407 450 436.101 450 472 450 507.898 420.898 537 385 537 349.102 537 320 507.898 320 472Z" fill="#C00000" fill-rule="evenodd"/><text fill="#FFFFFF" font-family="Segoe UI,Segoe UI_MSFontService,sans-serif" font-weight="400" font-size="46" transform="matrix(1 0 0 1 372.485 489)">1</text><path d="M320 731C320 695.101 349.102 666 385 666 420.898 666 450 695.101 450 731 450 766.899 420.898 796 385 796 349.102 796 320 766.899 320 731Z" fill="#002060" fill-rule="evenodd"/><text fill="#FFFFFF" font-family="Segoe UI,Segoe UI_MSFontService,sans-serif" font-weight="400" font-size="46" transform="matrix(1 0 0 1 372.485 749)">2</text><path d="M320 991C320 955.102 349.102 926 385 926 420.898 926 450 955.102 450 991 450 1026.9 420.898 1056 385 1056 349.102 1056 320 1026.9 320 991Z" fill="#002060" fill-rule="evenodd"/><text fill="#FFFFFF" font-family="Segoe UI,Segoe UI_MSFontService,sans-serif" font-weight="400" font-size="46" transform="matrix(1 0 0 1 372.485 1009)">3</text><path d="M320 1251C320 1215.1 349.102 1186 385 1186 420.898 1186 450 1215.1 450 1251 450 1286.9 420.898 1316 385 1316 349.102 1316 320 1286.9 320 1251Z" fill="#002060" fill-rule="evenodd"/><text fill="#FFFFFF" font-family="Segoe UI,Segoe UI_MSFontService,sans-serif" font-weight="400" font-size="46" transform="matrix(1 0 0 1 372.485 1269)">4</text><path d="M320 1511C320 1475.1 349.102 1446 385 1446 420.898 1446 450 1475.1 450 1511 450 1546.9 420.898 1576 385 1576 349.102 1576 320 1546.9 320 1511Z" fill="#002060" fill-rule="evenodd"/><text fill="#FFFFFF" font-family="Segoe UI,Segoe UI_MSFontService,sans-serif" font-weight="400" font-size="46" transform="matrix(1 0 0 1 372.485 1528)">5</text><path d="M580 472C580 436.101 609.101 407 645 407 680.898 407 710 436.101 710 472 710 507.898 680.898 537 645 537 609.101 537 580 507.898 580 472Z" fill="#C00000" fill-rule="evenodd"/><text fill="#FFFFFF" font-family="Segoe UI,Segoe UI_MSFontService,sans-serif" font-weight="400" font-size="46" transform="matrix(1 0 0 1 632.327 489)">6</text><path d="M580 731C580 695.101 609.101 666 645 666 680.898 666 710 695.101 710 731 710 766.899 680.898 796 645 796 609.101 796 580 766.899 580 731Z" fill="#002060" fill-rule="evenodd"/><text fill="#FFFFFF" font-family="Segoe UI,Segoe UI_MSFontService,sans-serif" font-weight="400" font-size="46" transform="matrix(1 0 0 1 632.327 749)">7</text><path d="M580 991C580 955.102 609.101 926 645 926 680.898 926 710 955.102 710 991 710 1026.9 680.898 1056 645 1056 609.101 1056 580 1026.9 580 991Z" fill="#002060" fill-rule="evenodd"/><text fill="#FFFFFF" font-family="Segoe UI,Segoe UI_MSFontService,sans-serif" font-weight="400" font-size="46" transform="matrix(1 0 0 1 632.327 1009)">8</text><path d="M580 1251C580 1215.1 609.101 1186 645 1186 680.898 1186 710 1215.1 710 1251 710 1286.9 680.898 1316 645 1316 609.101 1316 580 1286.9 580 1251Z" fill="#002060" fill-rule="evenodd"/><text fill="#FFFFFF" font-family="Segoe UI,Segoe UI_MSFontService,sans-serif" font-weight="400" font-size="46" transform="matrix(1 0 0 1 632.327 1269)">9</text><path d="M580 1511C580 1475.1 609.101 1446 645 1446 680.898 1446 710 1475.1 710 1511 710 1546.9 680.898 1576 645 1576 609.101 1576 580 1546.9 580 1511Z" fill="#002060" fill-rule="evenodd"/><text fill="#FFFFFF" font-family="Segoe UI,Segoe UI_MSFontService,sans-serif" font-weight="400" font-size="46" transform="matrix(1 0 0 1 620.009 1528)">10</text><text font-family="Segoe UI,Segoe UI_MSFontService,sans-serif" font-weight="400" font-size="50" transform="matrix(1 0 0 1 218.397 490)">s1</text><text font-family="Segoe UI,Segoe UI_MSFontService,sans-serif" font-weight="400" font-size="50" transform="matrix(1 0 0 1 217.24 750)">s2</text><text font-family="Segoe UI,Segoe UI_MSFontService,sans-serif" font-weight="400" font-size="50" transform="matrix(1 0 0 1 216.083 1010)">s3</text><text font-family="Segoe UI,Segoe UI_MSFontService,sans-serif" font-weight="400" font-size="50" transform="matrix(1 0 0 1 214.925 1270)">s4</text><text font-family="Segoe UI,Segoe UI_MSFontService,sans-serif" font-weight="400" font-size="50" transform="matrix(1 0 0 1 213.768 1530)">s5</text><path d="M840 472C840 436.101 868.878 407 904.5 407 940.122 407 969 436.101 969 472 969 507.898 940.122 537 904.5 537 868.878 537 840 507.898 840 472Z" fill="#C00000" fill-rule="evenodd"/><text fill="#FFFFFF" font-family="Segoe UI,Segoe UI_MSFontService,sans-serif" font-weight="400" font-size="46" transform="matrix(1 0 0 1 879.852 489)">11</text><path d="M840 731C840 695.101 868.878 666 904.5 666 940.122 666 969 695.101 969 731 969 766.899 940.122 796 904.5 796 868.878 796 840 766.899 840 731Z" fill="#002060" fill-rule="evenodd"/><text fill="#FFFFFF" font-family="Segoe UI,Segoe UI_MSFontService,sans-serif" font-weight="400" font-size="46" transform="matrix(1 0 0 1 879.852 749)">12</text><path d="M840 991C840 955.102 868.878 926 904.5 926 940.122 926 969 955.102 969 991 969 1026.9 940.122 1056 904.5 1056 868.878 1056 840 1026.9 840 991Z" fill="#002060" fill-rule="evenodd"/><text fill="#FFFFFF" font-family="Segoe UI,Segoe UI_MSFontService,sans-serif" font-weight="400" font-size="46" transform="matrix(1 0 0 1 879.852 1009)">13</text><path d="M840 1251C840 1215.1 868.878 1186 904.5 1186 940.122 1186 969 1215.1 969 1251 969 1286.9 940.122 1316 904.5 1316 868.878 1316 840 1286.9 840 1251Z" fill="#002060" fill-rule="evenodd"/><text fill="#FFFFFF" font-family="Segoe UI,Segoe UI_MSFontService,sans-serif" font-weight="400" font-size="46" transform="matrix(1 0 0 1 879.852 1269)">14</text><path d="M840 1511C840 1475.1 868.878 1446 904.5 1446 940.122 1446 969 1475.1 969 1511 969 1546.9 940.122 1576 904.5 1576 868.878 1576 840 1546.9 840 1511Z" fill="#002060" fill-rule="evenodd"/><text fill="#FFFFFF" font-family="Segoe UI,Segoe UI_MSFontService,sans-serif" font-weight="400" font-size="46" transform="matrix(1 0 0 1 879.852 1528)">15</text><path d="M1099 472C1099 436.101 1128.1 407 1164 407 1199.9 407 1229 436.101 1229 472 1229 507.898 1199.9 537 1164 537 1128.1 537 1099 507.898 1099 472Z" fill="#C00000" fill-rule="evenodd" fill-opacity="0.501961"/><text fill="#FFFFFF" font-family="Segoe UI,Segoe UI_MSFontService,sans-serif" font-weight="400" font-size="46" transform="matrix(1 0 0 1 1139.69 489)">16</text><path d="M1099 731C1099 695.101 1128.1 666 1164 666 1199.9 666 1229 695.101 1229 731 1229 766.899 1199.9 796 1164 796 1128.1 796 1099 766.899 1099 731Z" fill="#002060" fill-rule="evenodd" fill-opacity="0.501961"/><text fill="#FFFFFF" font-family="Segoe UI,Segoe UI_MSFontService,sans-serif" font-weight="400" font-size="46" transform="matrix(1 0 0 1 1139.69 749)">17</text><path d="M1099 991C1099 955.102 1128.1 926 1164 926 1199.9 926 1229 955.102 1229 991 1229 1026.9 1199.9 1056 1164 1056 1128.1 1056 1099 1026.9 1099 991Z" fill="#002060" fill-rule="evenodd" fill-opacity="0.501961"/><text fill="#FFFFFF" font-family="Segoe UI,Segoe UI_MSFontService,sans-serif" font-weight="400" font-size="46" transform="matrix(1 0 0 1 1139.69 1009)">18</text><path d="M1099 1251C1099 1215.1 1128.1 1186 1164 1186 1199.9 1186 1229 1215.1 1229 1251 1229 1286.9 1199.9 1316 1164 1316 1128.1 1316 1099 1286.9 1099 1251Z" fill="#002060" fill-rule="evenodd" fill-opacity="0.501961"/><text fill="#FFFFFF" font-family="Segoe UI,Segoe UI_MSFontService,sans-serif" font-weight="400" font-size="46" transform="matrix(1 0 0 1 1139.69 1269)">19</text><path d="M1099 1511C1099 1475.1 1128.1 1446 1164 1446 1199.9 1446 1229 1475.1 1229 1511 1229 1546.9 1199.9 1576 1164 1576 1128.1 1576 1099 1546.9 1099 1511Z" fill="#002060" fill-rule="evenodd" fill-opacity="0.501961"/><text fill="#FFFFFF" font-family="Segoe UI,Segoe UI_MSFontService,sans-serif" font-weight="400" font-size="46" transform="matrix(1 0 0 1 1139.69 1528)">20</text><path d="M1359 472C1359 436.101 1388.1 407 1424 407 1459.9 407 1489 436.101 1489 472 1489 507.898 1459.9 537 1424 537 1388.1 537 1359 507.898 1359 472Z" fill="#C00000" fill-rule="evenodd" fill-opacity="0.25098"/><text fill="#FFFFFF" font-family="Segoe UI,Segoe UI_MSFontService,sans-serif" font-weight="400" font-size="46" transform="matrix(1 0 0 1 1399.54 489)">21</text><path d="M1359 731C1359 695.101 1388.1 666 1424 666 1459.9 666 1489 695.101 1489 731 1489 766.899 1459.9 796 1424 796 1388.1 796 1359 766.899 1359 731Z" fill="#002060" fill-rule="evenodd" fill-opacity="0.25098"/><text fill="#FFFFFF" font-family="Segoe UI,Segoe UI_MSFontService,sans-serif" font-weight="400" font-size="46" transform="matrix(1 0 0 1 1399.54 749)">22</text><path d="M1359 991C1359 955.102 1388.1 926 1424 926 1459.9 926 1489 955.102 1489 991 1489 1026.9 1459.9 1056 1424 1056 1388.1 1056 1359 1026.9 1359 991Z" fill="#002060" fill-rule="evenodd" fill-opacity="0.25098"/><text fill="#FFFFFF" font-family="Segoe UI,Segoe UI_MSFontService,sans-serif" font-weight="400" font-size="46" transform="matrix(1 0 0 1 1399.54 1009)">23</text><path d="M1359 1251C1359 1215.1 1388.1 1186 1424 1186 1459.9 1186 1489 1215.1 1489 1251 1489 1286.9 1459.9 1316 1424 1316 1388.1 1316 1359 1286.9 1359 1251Z" fill="#002060" fill-rule="evenodd" fill-opacity="0.25098"/><text fill="#FFFFFF" font-family="Segoe UI,Segoe UI_MSFontService,sans-serif" font-weight="400" font-size="46" transform="matrix(1 0 0 1 1399.54 1269)">24</text><path d="M1359 1511C1359 1475.1 1388.1 1446 1424 1446 1459.9 1446 1489 1475.1 1489 1511 1489 1546.9 1459.9 1576 1424 1576 1388.1 1576 1359 1546.9 1359 1511Z" fill="#002060" fill-rule="evenodd" fill-opacity="0.25098"/><text fill="#FFFFFF" font-family="Segoe UI,Segoe UI_MSFontService,sans-serif" font-weight="400" font-size="46" transform="matrix(1 0 0 1 1399.54 1528)">25</text><text font-family="Segoe UI,Segoe UI_MSFontService,sans-serif" font-weight="400" font-size="50" transform="matrix(1 0 0 1 359.594 337)">L1</text><text font-family="Segoe UI,Segoe UI_MSFontService,sans-serif" font-weight="400" font-size="50" transform="matrix(1 0 0 1 619.437 337)">L2</text><text font-family="Segoe UI,Segoe UI_MSFontService,sans-serif" font-weight="400" font-size="50" transform="matrix(1 0 0 1 879.279 337)">L3</text><text font-family="Segoe UI,Segoe UI_MSFontService,sans-serif" font-weight="400" font-size="50" transform="matrix(1 0 0 1 1139.12 337)">L4</text><text font-family="Segoe UI,Segoe UI_MSFontService,sans-serif" font-weight="400" font-size="50" transform="matrix(1 0 0 1 1398.96 337)">L5</text><text font-family="Segoe UI,Segoe UI_MSFontService,sans-serif" font-weight="400" font-size="50" transform="matrix(1 0 0 1 1653.94 337)">L…</text><path d="M277 1938.5C277 1866.98 335.203 1809 407 1809 478.797 1809 537 1866.98 537 1938.5 537 2010.02 478.797 2068 407 2068 335.203 2068 277 2010.02 277 1938.5Z" fill="#C00000" fill-rule="evenodd"/><text fill="#FFFFFF" font-family="Segoe UI,Segoe UI_MSFontService,sans-serif" font-weight="400" font-size="46" transform="matrix(1 0 0 1 359.059 1929)">Scan </text><text fill="#FFFFFF" font-family="Segoe UI,Segoe UI_MSFontService,sans-serif" font-weight="400" font-size="46" transform="matrix(1 0 0 1 325.256 1984)">Counter</text><path d="M560 1938.5C560 1866.98 618.203 1809 690 1809 761.797 1809 820 1866.98 820 1938.5 820 2010.02 761.797 2068 690 2068 618.203 2068 560 2010.02 560 1938.5Z" fill="#002060" fill-rule="evenodd"/><text fill="#FFFFFF" font-family="Segoe UI,Segoe UI_MSFontService,sans-serif" font-weight="400" font-size="46" transform="matrix(1 0 0 1 642.595 1929)">Scan </text><text fill="#FFFFFF" font-family="Segoe UI,Segoe UI_MSFontService,sans-serif" font-weight="400" font-size="46" transform="matrix(1 0 0 1 608.793 1984)">Counter</text><text font-family="Segoe UI,Segoe UI_MSFontService,sans-serif" font-weight="400" font-size="41" transform="matrix(1 0 0 1 310.36 1732)">Monitored</text><text font-family="Segoe UI,Segoe UI_MSFontService,sans-serif" font-weight="400" font-size="41" transform="matrix(1 0 0 1 655.784 1708)">Not </text><text font-family="Segoe UI,Segoe UI_MSFontService,sans-serif" font-weight="400" font-size="41" transform="matrix(1 0 0 1 594.757 1758)">monitored</text></g></svg>